<?xml version="1.0" encoding="UTF-8"?>
<!-- Generator: visioncortex VTracer 0.6.4 -->
<svg version="1.1" xmlns="http://www.w3.org/2000/svg" width="1024" height="1024">
<path d="M0 0 C5.146 3.976 10.031 8.279 14.945 12.535 C15.509 13.021 16.073 13.506 16.654 14.007 C17.74 14.943 18.822 15.885 19.899 16.831 C22.902 19.422 25.769 21.36 29.375 23 C38.209 27.231 38.209 27.231 40.312 31.438 C41.089 38.027 40.824 43.303 36.879 48.777 C34.288 51.523 31.766 52.903 28.312 54.438 C27.322 54.438 26.332 54.438 25.312 54.438 C25.336 55.549 25.359 56.66 25.383 57.805 C25.562 69.949 25.269 80.003 18.312 90.438 C18.011 92.528 18.011 92.528 18.039 94.832 C18.021 95.698 18.004 96.564 17.986 97.457 C17.97 98.379 17.954 99.3 17.938 100.25 C17.429 114.958 13.264 126.589 6.312 139.438 C7.854 140.563 9.395 141.688 10.938 142.812 C11.947 143.552 12.956 144.292 13.996 145.055 C16.17 146.634 18.361 148.138 20.598 149.633 C55.455 173.019 74.111 212.688 90.44 250.024 C91.235 251.84 92.04 253.652 92.845 255.464 C93.318 256.568 93.79 257.671 94.277 258.809 C94.696 259.777 95.115 260.746 95.547 261.744 C96.41 264.781 96.259 266.451 95.312 269.438 C93.875 271.25 93.875 271.25 92.312 272.438 C91.652 272.438 90.993 272.438 90.312 272.438 C90.844 273.563 91.375 274.688 91.922 275.848 C101.17 295.806 108.31 318.919 100.582 340.602 C98.635 344.951 96.222 348.678 93.312 352.438 C92.23 353.984 92.23 353.984 91.125 355.562 C85.34 362.241 76.727 366.271 68.312 368.438 C67.718 368.624 67.124 368.811 66.512 369.004 C63.348 369.628 60.282 369.53 57.062 369.5 C55.799 369.491 54.536 369.482 53.234 369.473 C52.27 369.461 51.306 369.449 50.312 369.438 C50.578 370.214 50.844 370.99 51.117 371.789 C51.47 372.869 51.824 373.95 52.188 375.062 C52.536 376.107 52.884 377.151 53.242 378.227 C56.348 389.327 56.63 400.741 56.562 412.188 C56.57 413.533 56.577 414.878 56.586 416.223 C56.553 433.112 52.279 448.54 42.312 462.438 C40.563 463.835 38.799 465.215 37.023 466.578 C33.722 469.822 32.039 472.126 31.767 476.716 C31.832 481.85 32.473 486.913 33.125 492 C33.312 493.737 33.493 495.475 33.67 497.213 C34.023 500.643 34.398 504.069 34.788 507.495 C40.145 556.051 33.888 605.795 24.312 653.438 C24.032 654.864 23.752 656.292 23.473 657.719 C22.44 662.943 21.375 668.157 20.242 673.359 C16.619 688.384 16.619 688.384 18.312 703.438 C18.393 704.846 18.42 706.257 18.41 707.668 C18.405 708.872 18.405 708.872 18.4 710.1 C18.392 710.933 18.384 711.766 18.375 712.625 C18.37 713.47 18.366 714.315 18.361 715.186 C18.35 717.27 18.332 719.354 18.312 721.438 C19.089 721.654 19.865 721.87 20.664 722.093 C24.217 723.09 27.765 724.107 31.312 725.125 C32.533 725.465 33.754 725.804 35.012 726.154 C50.139 730.529 50.139 730.529 55.371 736.973 C56.054 738.224 56.054 738.224 56.75 739.5 C57.223 740.337 57.696 741.173 58.184 742.035 C60.356 746.658 61.098 751.356 60.312 756.438 C57.27 764.364 50.908 768.176 43.59 771.777 C24.818 780.089 2.707 784.209 -17.688 780.438 C-24.223 779.773 -27.231 780.618 -32.688 784.438 C-52.064 791.315 -74.906 790.279 -93.961 783.242 C-97.923 780.62 -100.018 777.898 -101.688 773.438 C-102.306 768.847 -102.297 764.313 -102.25 759.688 C-102.233 757.276 -102.234 754.865 -102.254 752.453 C-102.243 751.394 -102.232 750.335 -102.221 749.243 C-102.804 745.736 -104.076 744.754 -106.688 742.438 C-109.836 735.954 -110.122 730.195 -110.188 723.062 C-110.259 715.285 -111.145 708.792 -113.688 701.438 C-116.936 691.331 -118.786 681.467 -119.148 670.855 C-120.055 646.148 -124.13 627.891 -136.688 606.438 C-138.586 609.285 -139.006 610.318 -139.477 613.531 C-139.676 614.803 -139.676 614.803 -139.879 616.101 C-140.022 617.037 -140.165 617.973 -140.312 618.938 C-142.031 629.45 -144.242 639.811 -146.625 650.188 C-146.799 650.949 -146.972 651.711 -147.151 652.496 C-148.92 660.234 -150.767 667.919 -153.031 675.531 C-156.271 686.478 -156.212 697.087 -155.688 708.438 C-155.094 708.55 -154.5 708.662 -153.888 708.778 C-146.336 710.312 -139.778 713.032 -135.188 719.562 C-131.799 726.057 -131.692 733.175 -133.812 740.125 C-139.905 750.888 -148.94 756.024 -160.598 759.625 C-167.889 761.542 -175.141 762.781 -182.688 762.438 C-182.908 763.198 -183.128 763.959 -183.355 764.742 C-186.224 770.547 -193.701 772.309 -199.457 774.484 C-207.12 776.707 -214.819 776.742 -222.75 776.812 C-224.382 776.834 -224.382 776.834 -226.047 776.855 C-236.491 776.794 -247.455 775.44 -255.688 768.438 C-259.081 764.945 -259.1 761.676 -259.059 757.039 C-259.076 755.576 -259.094 754.112 -259.111 752.648 C-259.121 750.355 -259.125 748.063 -259.123 745.77 C-259.127 743.546 -259.154 741.324 -259.184 739.102 C-259.171 738.084 -259.171 738.084 -259.159 737.046 C-259.236 732.044 -260.727 729.38 -263.688 725.438 C-265.86 719.716 -265.885 714.457 -265.938 708.438 C-266.231 697.074 -268.904 686.935 -271.981 676.058 C-276.787 658.225 -277.817 639.416 -277.961 621.047 C-277.967 620.367 -277.972 619.687 -277.978 618.986 C-278.029 612.621 -278.061 606.255 -278.068 599.89 C-277.881 577.828 -277.881 577.828 -282.688 556.438 C-283.084 555.251 -283.48 554.064 -283.888 552.842 C-285.102 549.31 -286.38 545.81 -287.688 542.312 C-292.471 529.427 -296.561 516.633 -298.875 503.062 C-299.039 502.143 -299.204 501.224 -299.373 500.277 C-299.833 497.667 -300.266 495.054 -300.688 492.438 C-300.985 490.597 -300.985 490.597 -301.289 488.719 C-302.041 482.286 -301.877 475.78 -301.875 469.312 C-301.878 468.607 -301.88 467.902 -301.883 467.176 C-301.915 457.163 -301.567 447.326 -299.872 437.427 C-299.183 432.408 -299.686 429.839 -302.562 425.594 C-303.109 424.892 -303.656 424.19 -304.219 423.467 C-309.565 416.08 -307.955 405.099 -307.688 396.438 C-307.658 395.464 -307.628 394.491 -307.598 393.488 C-306.986 383.513 -303.901 373.847 -300.688 364.438 C-303.62 363.45 -306.552 362.479 -309.512 361.578 C-325.109 356.727 -338.543 348.33 -346.602 333.727 C-353.233 319.748 -352.693 300.832 -348.074 286.23 C-347.618 284.964 -347.155 283.7 -346.688 282.438 C-346.414 281.679 -346.14 280.921 -345.858 280.139 C-342.443 270.802 -338.566 261.975 -333.688 253.312 C-330.597 247.818 -329.206 244.379 -329.863 238 C-329.431 231.7 -324.89 225.744 -321.688 220.438 C-321.11 219.458 -321.11 219.458 -320.521 218.458 C-314.286 207.909 -307.236 198.081 -299.688 188.438 C-299.265 187.897 -298.843 187.356 -298.409 186.799 C-294.037 181.234 -289.47 176.06 -284.387 171.137 C-282.551 169.37 -282.551 169.37 -280.688 166.875 C-277.726 163.266 -274.271 160.417 -270.688 157.438 C-270.168 157 -269.648 156.562 -269.112 156.111 C-260.347 148.765 -251.314 142.347 -241.479 136.513 C-239.919 135.577 -238.385 134.598 -236.855 133.613 C-214.277 119.432 -180.619 106.438 -153.688 106.438 C-153.47 105.918 -153.252 105.399 -153.027 104.863 C-151.688 102.437 -151.688 102.437 -149.191 99.355 C-142.138 90.59 -139.606 83.473 -138.613 72.304 C-136.385 47.423 -126.467 19.583 -107.688 2.438 C-77.291 -22.342 -31.246 -22.593 0 0 Z " fill="#0A0A0A" transform="translate(635.6875,99.5625)"/>
<path d="M0 0 C0.689 0.002 1.378 0.004 2.088 0.006 C58.06 0.252 120.786 18.668 161.562 58.312 C162.123 58.845 162.684 59.377 163.261 59.925 C167.501 64.027 171.023 68.339 174.375 73.188 C174.891 73.932 175.408 74.676 175.94 75.442 C189.358 95.015 199.7 116.518 209 138.312 C209.288 138.969 209.577 139.626 209.874 140.303 C210.956 142.941 211.56 145.148 211.598 148.008 C208.094 155.808 191.971 160.668 184.223 163.648 C164.019 171.045 143.077 174.695 121.562 174.312 C117.926 167.307 114.735 160.206 111.812 152.875 C111.388 151.815 110.963 150.754 110.526 149.662 C106.77 140.134 103.492 130.475 100.343 120.733 C99.991 119.645 99.64 118.558 99.277 117.438 C98.969 116.471 98.661 115.504 98.344 114.508 C97.758 112.365 97.758 112.365 96.562 111.312 C94.23 111.272 91.895 111.27 89.562 111.312 C89.925 126.585 95.913 140.582 101.5 154.562 C101.753 155.195 102.005 155.828 102.266 156.48 C108.385 173.178 108.385 173.178 118.203 187.676 C120.192 190.07 121.199 192.67 122.375 195.531 C130.758 215.166 141.392 234.744 160.375 245.75 C165.907 249.202 167.861 252.096 169.562 258.312 C169.733 258.929 169.904 259.546 170.08 260.182 C176.197 282.582 179.265 310.343 167.848 331.488 C166.201 334.209 164.461 336.763 162.562 339.312 C162.095 339.962 161.627 340.612 161.145 341.281 C159.566 343.34 158.132 345.021 155.801 346.215 C152.288 346.368 150.142 344.254 147.438 342.25 C125.676 327.015 100.744 315.967 75.776 307.107 C74.054 306.489 72.339 305.853 70.626 305.209 C60.993 301.648 51.246 298.894 41.312 296.312 C40.482 296.095 39.651 295.878 38.795 295.654 C17.548 290.118 -3.762 285.854 -25.627 283.609 C-27.496 283.412 -29.363 283.197 -31.228 282.965 C-40.98 281.301 -40.98 281.301 -49.941 284.039 C-51.505 286.093 -52.563 287.892 -53.438 290.312 C-51.544 292.206 -48.227 291.693 -45.695 291.855 C-44.239 291.956 -42.782 292.059 -41.325 292.162 C-40.55 292.216 -39.774 292.271 -38.975 292.327 C-25.11 293.323 -11.444 294.852 2.25 297.25 C2.951 297.371 3.652 297.492 4.374 297.617 C17.861 299.972 31.424 302.696 44.438 307 C45.2 307.248 45.963 307.496 46.749 307.751 C48.432 308.299 50.113 308.851 51.794 309.406 C54.844 310.405 57.902 311.376 60.961 312.348 C75.915 317.154 90.296 322.741 104.562 329.312 C104.562 329.973 104.562 330.632 104.562 331.312 C50.843 335.762 -2.565 336.598 -56.438 336.312 C-56.133 334.719 -55.825 333.127 -55.516 331.535 C-55.345 330.648 -55.173 329.762 -54.997 328.848 C-53.596 322.501 -50.423 317.565 -46.742 312.328 C-45.278 310.25 -45.278 310.25 -44.438 307.312 C-50.006 311.734 -54.049 316.041 -57.438 322.312 C-60.015 319.735 -61.296 316.839 -62.926 313.602 C-64.725 310.877 -66.819 309.233 -69.438 307.312 C-68.932 308.161 -68.427 309.009 -67.906 309.883 C-62.928 318.704 -61.454 325.045 -62.438 335.312 C-93.019 334.857 -130.907 329.609 -158.438 315.312 C-158.126 312.336 -157.942 310.769 -155.68 308.723 C-133.223 295.938 -107.19 290.244 -81.438 291.312 C-82.352 289.786 -83.322 288.291 -84.312 286.812 C-85.113 285.56 -85.113 285.56 -85.93 284.281 C-91.168 280.169 -98.654 282.284 -104.906 282.977 C-135.821 286.965 -135.821 286.965 -162.438 302.312 C-163.428 302.312 -164.418 302.312 -165.438 302.312 C-175.542 270.735 -154.049 230.161 -141.706 201.936 C-139.209 195.553 -137.981 189.867 -137.43 183.062 C-137.268 181.28 -137.105 179.499 -136.94 177.717 C-136.858 176.816 -136.777 175.916 -136.692 174.988 C-134.058 147.324 -131.264 118.399 -122.961 91.811 C-121.74 87.858 -121.119 84.453 -121.438 80.312 C-122.504 79.016 -122.504 79.016 -125 79.25 C-125.804 79.271 -126.609 79.291 -127.438 79.312 C-137.222 99.606 -140.55 121.882 -143.112 144.049 C-143.42 146.19 -143.872 148.226 -144.438 150.312 C-161.454 145.536 -176.508 135.189 -188.438 122.312 C-186.967 117.229 -184.751 113.011 -182.062 108.5 C-181.405 107.393 -181.405 107.393 -180.734 106.264 C-172.836 93.178 -163.852 81.14 -153.692 69.734 C-152.647 68.55 -151.63 67.34 -150.621 66.125 C-125.076 35.395 -86.808 15.417 -48.438 6.312 C-47.689 6.13 -46.941 5.947 -46.17 5.759 C-43.866 5.201 -41.56 4.659 -39.25 4.125 C-38.586 3.97 -37.922 3.815 -37.239 3.655 C-24.888 0.933 -12.623 -0.054 0 0 Z " fill="#FDFDFD" transform="translate(506.4375,215.6875)"/>
<path d="M0 0 C3.456 0.739 6.76 1.571 10 3 C10.474 3.969 10.949 4.939 11.438 5.938 C13.677 10.328 16.696 10.806 21.211 12.336 C24.027 13.006 26.133 13.432 29 13 C30.653 11.027 30.653 11.027 32 9 C33.076 9.249 33.076 9.249 34.174 9.503 C49.353 12.98 64.337 15.825 79.832 17.457 C80.726 17.555 81.62 17.652 82.542 17.752 C84.072 17.907 85.606 18.034 87.142 18.119 C89.012 18.262 89.012 18.262 92 19 C92.44 19.839 92.879 20.678 93.332 21.543 C94.706 24.183 94.706 24.183 97.001 24.409 C99.579 24.493 102.111 24.435 104.688 24.312 C106.027 24.279 106.027 24.279 107.393 24.244 C109.597 24.185 111.798 24.103 114 24 C114 23.01 114 22.02 114 21 C136.44 21 158.88 21 182 21 C182.99 22.98 182.99 22.98 184 25 C186.625 25.027 189.25 25.047 191.875 25.062 C192.621 25.071 193.368 25.079 194.137 25.088 C198.198 25.207 198.198 25.207 202 24 C202.652 21.975 202.652 21.975 203 20 C209.831 19.426 216.663 18.857 223.496 18.291 C225.818 18.098 228.14 17.904 230.461 17.709 C233.807 17.428 237.154 17.151 240.5 16.875 C241.531 16.788 242.561 16.7 243.623 16.61 C249.105 16.162 254.5 15.908 260 16 C260.33 17.98 260.66 19.96 261 22 C263.23 21.885 265.459 21.758 267.688 21.625 C268.929 21.555 270.17 21.486 271.449 21.414 C274.717 21.033 277.097 20.517 280 19 C280.887 16.959 280.887 16.959 281 15 C281.99 15 282.98 15 284 15 C285.906 28.725 286.626 42.41 287.125 56.25 C287.167 57.367 287.208 58.485 287.251 59.636 C288.441 91.875 288.372 123.819 286 156 C285.863 157.902 285.863 157.902 285.724 159.842 C284.392 177.431 281.7 194.653 278.513 211.985 C278.29 213.199 278.29 213.199 278.063 214.436 C277.771 216.023 277.478 217.61 277.182 219.196 C276.498 222.933 275.894 226.653 275.468 230.429 C275.349 231.468 275.349 231.468 275.228 232.528 C275.026 234.393 274.847 236.259 274.671 238.126 C274 241 274 241 272.275 242.705 C269.879 243.944 267.644 244.445 265 245 C263.746 245.339 262.491 245.678 261.199 246.027 C257.152 247.115 253.09 248.089 249 249 C248.25 249.181 247.501 249.362 246.728 249.548 C239.788 251.115 233.037 251.384 225.938 251.375 C224.756 251.376 223.575 251.376 222.357 251.377 C211.618 251.243 202.145 249.382 192 246 C190.85 243.239 189.92 240.604 189.062 237.75 C188.804 236.909 188.545 236.068 188.279 235.201 C183.118 217.808 181.001 200.287 180.482 182.211 C180.106 172.122 178.263 163.688 173.938 154.562 C173.539 153.698 173.141 152.833 172.73 151.942 C170.791 147.751 168.805 143.585 166.793 139.43 C162.201 129.93 157.983 120.335 154 110.562 C153.519 109.382 153.037 108.202 152.542 106.986 C148.839 97.805 148.839 97.805 148 94 C149.354 94.144 150.708 94.291 152.062 94.438 C153.194 94.559 153.194 94.559 154.348 94.684 C156.347 94.922 158.342 95.206 160.332 95.512 C180.256 98.164 200.392 93.55 218 84 C218.33 83.34 218.66 82.68 219 82 C218.447 82.171 217.893 82.343 217.323 82.519 C214.758 83.309 212.192 84.092 209.625 84.875 C208.755 85.144 207.885 85.414 206.988 85.691 C183.393 92.857 157.38 92.241 135 81.062 C120.76 73.449 112.19 61.222 106.961 45.969 C105.681 41.52 104.85 37.648 105 33 C104.34 33 103.68 33 103 33 C103.32 50.25 109.614 63.921 119 78 C100.501 85.826 77.29 85.37 58.631 78.074 C52.055 75.284 45.705 72.339 40 68 C39.34 68 38.68 68 38 68 C48.861 79.912 63.779 84.377 79 88 C79.784 88.197 80.567 88.394 81.375 88.598 C94.704 90.641 109.553 89.488 122.062 84.488 C125.286 83.676 127.301 84.611 130.141 86.191 C131.513 87.083 132.885 87.975 134.257 88.867 C134.832 89.241 135.407 89.615 136 90 C135.503 101.324 133.763 112.241 131.75 123.375 C131.429 125.175 131.108 126.975 130.787 128.775 C126.638 151.905 121.507 174.769 116.184 197.652 C116.003 198.431 115.821 199.21 115.635 200.013 C114.725 203.921 113.804 207.826 112.868 211.727 C112.686 212.489 112.504 213.25 112.316 214.035 C111.975 215.461 111.631 216.886 111.284 218.311 C110.521 221.507 109.915 224.635 109.48 227.896 C109 231 109 231 107.531 232.418 C105.034 233.364 102.559 234.229 100 235 C98.787 235.373 97.574 235.745 96.324 236.129 C77.194 241.521 57.636 239.833 38.918 233.551 C35.841 231.063 35.1 227.664 34 224 C33.723 223.088 33.446 222.176 33.161 221.237 C32.228 218.044 31.36 214.838 30.5 211.625 C30.205 210.591 29.91 209.557 29.605 208.492 C23.171 184.34 23.553 159.292 23.495 134.504 C23.483 130.073 23.459 125.643 23.42 121.212 C23.407 119.186 23.411 117.16 23.415 115.134 C23.323 103.62 21.369 92.878 17.293 82.109 C16.786 80.739 16.279 79.369 15.773 77.999 C15.514 77.305 15.254 76.612 14.987 75.897 C9.373 60.816 4.991 45.841 2 30 C1.859 29.275 1.718 28.549 1.572 27.802 C-0.182 18.535 -0.219 9.388 0 0 Z " fill="#FDFDFD" transform="translate(345,568)"/>
<path d="M0 0 C5.146 3.976 10.031 8.279 14.945 12.535 C15.509 13.021 16.073 13.506 16.654 14.007 C17.74 14.943 18.822 15.885 19.899 16.831 C22.902 19.422 25.769 21.36 29.375 23 C38.209 27.231 38.209 27.231 40.312 31.438 C41.089 38.027 40.824 43.303 36.879 48.777 C34.288 51.523 31.766 52.903 28.312 54.438 C27.322 54.438 26.332 54.438 25.312 54.438 C25.336 55.549 25.359 56.66 25.383 57.805 C25.562 69.949 25.269 80.003 18.312 90.438 C18.011 92.528 18.011 92.528 18.039 94.832 C18.021 95.698 18.004 96.564 17.986 97.457 C17.97 98.379 17.954 99.3 17.938 100.25 C17.429 114.958 13.264 126.589 6.312 139.438 C7.854 140.563 9.395 141.688 10.938 142.812 C11.947 143.552 12.956 144.292 13.996 145.055 C16.17 146.634 18.361 148.138 20.598 149.633 C46.522 167.026 62.473 192.958 76.5 220.188 C76.995 221.129 77.489 222.07 77.999 223.04 C78.446 223.929 78.894 224.818 79.355 225.734 C79.758 226.522 80.16 227.309 80.575 228.12 C81.479 230.959 81.177 232.614 80.312 235.438 C78.519 237.555 76.604 238.801 74.312 240.438 C73.652 240.438 72.993 240.438 72.312 240.438 C71.982 239.724 71.651 239.011 71.31 238.276 C56.096 205.662 39.611 176.992 9.312 156.438 C8.276 155.729 7.24 155.02 6.172 154.289 C-42.07 122.994 -111.31 109.269 -167.577 120.757 C-204.002 128.723 -237.962 143.698 -265.406 169.312 C-266.939 170.741 -268.503 172.136 -270.094 173.5 C-286.134 187.307 -298.49 205.188 -309.375 223.188 C-309.88 224.021 -310.386 224.855 -310.906 225.713 C-313.363 229.865 -315.394 233.749 -316.688 238.438 C-316.11 238.957 -315.533 239.476 -314.938 240.012 C-314.195 240.709 -313.452 241.406 -312.688 242.125 C-311.945 242.809 -311.202 243.494 -310.438 244.199 C-308.337 246.885 -308.423 248.118 -308.688 251.438 C-308.358 252.098 -308.028 252.757 -307.688 253.438 C-308.347 254.428 -309.007 255.418 -309.688 256.438 C-310.678 256.108 -311.668 255.777 -312.688 255.438 C-311.248 259.755 -307.973 261.065 -304.25 263.312 C-303.522 263.759 -302.793 264.205 -302.042 264.665 C-293.572 269.8 -284.944 273.912 -275.688 277.438 C-275.217 295.618 -277.448 309.058 -285.07 325.625 C-288.259 332.573 -290.842 339.701 -293.41 346.895 C-294.688 350.438 -294.688 350.438 -295.688 352.438 C-305.987 353.635 -316.136 347.63 -324.688 342.438 C-324.688 343.757 -324.688 345.077 -324.688 346.438 C-325.348 347.098 -326.007 347.757 -326.688 348.438 C-326.358 349.098 -326.027 349.757 -325.688 350.438 C-327.007 351.098 -328.327 351.757 -329.688 352.438 C-340.017 343.646 -349.031 334.596 -350.688 320.438 C-351.455 307.25 -351.317 294.924 -346.688 282.438 C-346.414 281.679 -346.14 280.921 -345.858 280.139 C-342.443 270.802 -338.566 261.975 -333.688 253.312 C-330.597 247.818 -329.206 244.379 -329.863 238 C-329.431 231.7 -324.89 225.744 -321.688 220.438 C-321.11 219.458 -321.11 219.458 -320.521 218.458 C-314.286 207.909 -307.236 198.081 -299.688 188.438 C-299.265 187.897 -298.843 187.356 -298.409 186.799 C-294.037 181.234 -289.47 176.06 -284.387 171.137 C-282.551 169.37 -282.551 169.37 -280.688 166.875 C-277.726 163.266 -274.271 160.417 -270.688 157.438 C-270.168 157 -269.648 156.562 -269.112 156.111 C-260.347 148.765 -251.314 142.347 -241.479 136.513 C-239.919 135.577 -238.385 134.598 -236.855 133.613 C-214.277 119.432 -180.619 106.438 -153.688 106.438 C-153.47 105.918 -153.252 105.399 -153.027 104.863 C-151.688 102.437 -151.688 102.437 -149.191 99.355 C-142.138 90.59 -139.606 83.473 -138.613 72.304 C-136.385 47.423 -126.467 19.583 -107.688 2.438 C-77.291 -22.342 -31.246 -22.593 0 0 Z " fill="#080808" transform="translate(635.6875,99.5625)"/>
<path d="M0 0 C2.5 0.25 2.5 0.25 4.5 2.25 C4.846 7.834 3.265 13.274 1.633 18.555 C-0.722 26.657 -2.167 34.802 -3.5 43.125 C-3.626 43.897 -3.753 44.67 -3.883 45.466 C-5.718 56.7 -7.345 67.954 -8.75 79.25 C-8.874 80.248 -8.874 80.248 -9.001 81.266 C-9.775 87.544 -10.497 93.817 -10.977 100.125 C-11.047 101.005 -11.118 101.886 -11.19 102.793 C-11.305 104.315 -11.4 105.838 -11.466 107.363 C-12.001 114.696 -14.971 121.347 -17.653 128.11 C-18.75 130.882 -19.82 133.664 -20.889 136.446 C-21.689 138.525 -22.492 140.603 -23.295 142.68 C-39.322 182.189 -39.322 182.189 -40.5 224.25 C-39.99 223.959 -39.479 223.667 -38.953 223.367 C-36.48 221.973 -33.993 220.609 -31.5 219.25 C-30.63 218.769 -29.76 218.288 -28.863 217.793 C-10.373 208.019 15.491 200.139 36.5 203.25 C39.008 204.93 39.008 204.93 40.625 207.125 C41.184 207.844 41.744 208.564 42.32 209.305 C43.5 211.25 43.5 211.25 43.5 213.25 C42.521 213.309 42.521 213.309 41.522 213.37 C17.68 214.882 -7.093 217.424 -27.906 230.305 C-29.5 231.25 -29.5 231.25 -32.5 232.25 C-32.83 233.9 -33.16 235.55 -33.5 237.25 C-32.452 237.557 -32.452 237.557 -31.383 237.871 C-30.018 238.275 -30.018 238.275 -28.625 238.688 C-27.72 238.954 -26.815 239.221 -25.883 239.496 C-23.5 240.25 -23.5 240.25 -21.5 241.25 C-21.5 241.91 -21.5 242.57 -21.5 243.25 C-26.798 246.481 -27.746 246.215 -34.5 245.25 C-35.16 252.84 -35.82 260.43 -36.5 268.25 C-35.18 268.58 -33.86 268.91 -32.5 269.25 C-32.83 269.91 -33.16 270.57 -33.5 271.25 C-34.49 271.25 -35.48 271.25 -36.5 271.25 C-36.735 279.3 -36.087 286.983 -34.875 294.938 C-34.607 296.7 -34.607 296.7 -34.333 298.498 C-31.339 317.28 -26.226 334.956 -19.551 352.746 C-14.724 365.662 -12.215 377.123 -12.195 391.026 C-12.191 393.131 -12.174 395.235 -12.154 397.339 C-12.1 403.315 -12.069 409.291 -12.044 415.267 C-11.932 439.586 -11.159 463.751 -5.143 487.463 C-4.79 488.894 -4.464 490.332 -4.161 491.775 C-2.414 500.744 -2.414 500.744 3.507 507.287 C6.843 508.61 9.988 509.527 13.5 510.25 C14.569 510.491 15.638 510.733 16.739 510.981 C35.503 514.844 53.862 512.09 71.5 505.25 C71.647 504.121 71.647 504.121 71.797 502.969 C72.668 496.778 73.789 490.809 75.344 484.75 C75.703 483.335 76.062 481.921 76.421 480.506 C76.692 479.44 76.692 479.44 76.969 478.352 C84.83 447.251 91.529 415.82 96.5 384.125 C96.659 383.117 96.659 383.117 96.822 382.089 C98.28 373.215 98.28 373.215 98.5 364.25 C96.361 361.573 93.735 360.292 90.5 359.25 C86.977 359.344 83.857 360.224 80.5 361.25 C79.085 361.611 77.669 361.966 76.25 362.312 C75.012 362.622 73.775 362.931 72.5 363.25 C51.189 367.531 27.889 362.277 9.664 350.73 C1.887 345.41 1.887 345.41 0.5 341.25 C3.266 341.86 5.598 342.688 8.109 343.992 C8.782 344.336 9.455 344.681 10.148 345.035 C11.534 345.754 12.919 346.472 14.305 347.191 C34.355 357.445 56.793 359.232 78.5 353.25 C79.49 352.59 80.48 351.93 81.5 351.25 C81.053 350.656 80.605 350.061 80.145 349.449 C75.69 343.342 72.267 337.284 69.5 330.25 C69.179 329.438 68.858 328.626 68.527 327.789 C66.152 320.96 66.197 314.421 66.5 307.25 C67.16 307.25 67.82 307.25 68.5 307.25 C68.696 308.231 68.892 309.212 69.094 310.223 C72.41 325.615 79.157 341.878 92.625 351 C112.509 362.666 138.701 367.289 161.188 361.438 C163.632 360.732 166.07 360.005 168.5 359.25 C170.602 358.659 172.706 358.075 174.812 357.5 C175.654 357.258 176.496 357.015 177.363 356.766 C179.5 356.25 179.5 356.25 182.5 356.25 C181.5 359.25 181.5 359.25 179.928 360.261 C179.252 360.555 178.576 360.849 177.879 361.152 C176.737 361.649 176.737 361.649 175.572 362.156 C174.744 362.497 173.916 362.837 173.062 363.188 C171.782 363.715 171.782 363.715 170.475 364.254 C154.333 370.676 136.736 374.131 119.578 369.688 C117.177 369.182 114.946 369.182 112.5 369.25 C120.338 389.35 128.856 409.139 138.328 428.527 C142.697 437.525 144.484 445.575 144.791 455.571 C145.287 471.67 146.701 487.813 151.5 503.25 C152.25 505.932 152.969 508.622 153.688 511.312 C154.032 512.582 154.376 513.852 154.73 515.16 C155.5 518.25 155.5 518.25 155.5 520.25 C156.19 520.371 156.879 520.492 157.59 520.617 C158.53 520.785 159.469 520.952 160.438 521.125 C161.354 521.287 162.271 521.45 163.215 521.617 C166.5 522.25 166.5 522.25 170.25 523.312 C177.859 525.023 185.812 524.458 193.562 524.375 C195.208 524.365 196.853 524.356 198.498 524.348 C202.499 524.326 206.499 524.291 210.5 524.25 C209.75 526.687 209.75 526.687 208.5 529.25 C196.668 534.691 174.822 530.852 162.371 527.906 C159.341 527.101 159.341 527.101 155.5 527.25 C155.286 532.591 155.15 537.314 157.5 542.25 C165.415 549.304 177.6 548.757 187.625 548.696 C189.734 548.688 191.841 548.716 193.949 548.748 C204.018 548.799 212.836 547.082 222.5 544.25 C223.521 543.964 224.541 543.679 225.593 543.385 C227.918 542.728 230.209 542.016 232.5 541.25 C233.201 541.015 233.902 540.781 234.625 540.539 C236.777 539.78 236.777 539.78 239.5 538.25 C240.819 534.842 240.809 531.115 241.062 527.5 C241.146 526.33 241.23 525.159 241.316 523.953 C241.377 523.061 241.438 522.169 241.5 521.25 C242.82 521.25 244.14 521.25 245.5 521.25 C245.5 526.2 245.5 531.15 245.5 536.25 C246.882 535.239 248.264 534.229 249.688 533.188 C253.811 530.172 253.811 530.172 257.301 530.566 C258.027 530.792 258.752 531.018 259.5 531.25 C259.5 533.25 259.5 535.25 259.5 537.25 C259.83 538.24 260.16 539.23 260.5 540.25 C235.109 558.318 199.476 563.69 169.25 558.785 C166.974 558.342 164.74 557.848 162.5 557.25 C162.608 560.154 162.608 560.154 163.5 563.25 C165.943 565.167 165.943 565.167 168.5 566.25 C167.84 567.24 167.18 568.23 166.5 569.25 C165.18 569.25 163.86 569.25 162.5 569.25 C162.408 573.391 162.408 573.391 163.5 577.25 C166.283 579.25 169.232 580.278 172.5 581.25 C173.063 581.425 173.626 581.6 174.205 581.781 C179.331 582.829 184.705 582.476 189.924 582.49 C192.097 582.5 194.269 582.531 196.441 582.562 C210.046 582.768 210.046 582.768 221.688 576.562 C224.5 574.25 224.5 574.25 227.562 573.812 C230.93 574.187 234.222 574.695 237.562 575.25 C255.019 578.01 272.642 575.783 288.982 569.144 C292.895 567.593 295.442 566.902 299.5 568.25 C299.5 569.583 299.5 570.917 299.5 572.25 C300.49 572.58 301.48 572.91 302.5 573.25 C293.403 583.55 273.609 586.014 260.5 587.25 C252.441 587.602 244.45 587.72 236.5 586.25 C229.965 585.586 226.957 586.43 221.5 590.25 C202.123 597.128 179.281 596.091 160.227 589.055 C156.264 586.432 154.169 583.711 152.5 579.25 C151.881 574.66 151.89 570.126 151.938 565.5 C151.954 563.089 151.954 560.677 151.934 558.266 C151.944 557.206 151.955 556.147 151.967 555.056 C151.383 551.549 150.112 550.567 147.5 548.25 C144.351 541.766 144.065 536.007 144 528.875 C143.928 521.098 143.042 514.605 140.5 507.25 C137.251 497.143 135.401 487.279 135.039 476.668 C134.132 451.96 130.058 433.704 117.5 412.25 C115.602 415.097 115.181 416.131 114.711 419.344 C114.578 420.192 114.446 421.04 114.309 421.913 C114.166 422.849 114.023 423.785 113.875 424.75 C112.157 435.262 109.946 445.623 107.562 456 C107.389 456.762 107.215 457.523 107.036 458.308 C105.267 466.047 103.42 473.732 101.157 481.344 C97.917 492.291 97.976 502.9 98.5 514.25 C99.094 514.362 99.688 514.475 100.3 514.591 C107.852 516.124 114.409 518.845 119 525.375 C122.388 531.87 122.495 538.987 120.375 545.938 C114.283 556.701 105.247 561.837 93.59 565.438 C86.299 567.355 79.046 568.593 71.5 568.25 C71.28 569.011 71.059 569.771 70.832 570.555 C67.963 576.36 60.486 578.121 54.73 580.297 C47.068 582.519 39.368 582.555 31.438 582.625 C29.805 582.646 29.805 582.646 28.14 582.667 C17.697 582.606 6.733 581.253 -1.5 574.25 C-4.894 570.758 -4.913 567.488 -4.871 562.852 C-4.888 561.388 -4.906 559.924 -4.924 558.461 C-4.934 556.168 -4.938 553.875 -4.936 551.582 C-4.939 549.359 -4.967 547.137 -4.996 544.914 C-4.984 543.897 -4.984 543.897 -4.971 542.859 C-5.049 537.856 -6.539 535.193 -9.5 531.25 C-11.673 525.529 -11.697 520.27 -11.75 514.25 C-12.043 502.887 -14.716 492.747 -17.794 481.87 C-22.599 464.038 -23.63 445.228 -23.773 426.859 C-23.779 426.179 -23.785 425.499 -23.791 424.798 C-23.842 418.433 -23.873 412.068 -23.881 405.702 C-23.694 383.64 -23.694 383.64 -28.5 362.25 C-28.896 361.063 -29.292 359.877 -29.701 358.654 C-30.914 355.123 -32.193 351.623 -33.5 348.125 C-38.283 335.239 -42.374 322.445 -44.688 308.875 C-44.852 307.956 -45.016 307.037 -45.186 306.09 C-45.645 303.48 -46.079 300.867 -46.5 298.25 C-46.699 297.023 -46.897 295.796 -47.102 294.531 C-47.854 288.098 -47.689 281.592 -47.688 275.125 C-47.692 274.067 -47.692 274.067 -47.696 272.988 C-47.728 262.975 -47.38 253.138 -45.684 243.24 C-44.995 238.22 -45.499 235.652 -48.375 231.406 C-48.922 230.704 -49.468 230.002 -50.031 229.279 C-55.378 221.893 -53.768 210.911 -53.5 202.25 C-53.47 201.277 -53.441 200.304 -53.41 199.301 C-52.799 189.326 -49.714 179.66 -46.5 170.25 C-49.457 169.256 -52.414 168.277 -55.395 167.355 C-61.907 165.307 -67.685 162.833 -73.5 159.25 C-73.5 155.224 -72.295 151.84 -70.5 148.25 C-67.471 149.386 -64.613 150.693 -61.75 152.188 C-55.242 155.472 -48.743 157.479 -41.5 158.25 C-41.328 157.648 -41.155 157.046 -40.978 156.425 C-39.144 150.15 -37.029 144.039 -34.688 137.938 C-34.339 137.018 -33.991 136.099 -33.632 135.152 C-31.691 130.096 -29.579 125.262 -27.125 120.438 C-23.714 113.273 -23.053 106.045 -22.5 98.25 C-22.445 97.533 -22.39 96.816 -22.333 96.077 C-22.009 91.804 -21.734 87.53 -21.5 83.25 C-22.287 83.082 -22.287 83.082 -23.09 82.91 C-36.466 79.505 -48.776 71.75 -59.5 63.25 C-59.17 62.26 -58.84 61.27 -58.5 60.25 C-57.015 60.745 -57.015 60.745 -55.5 61.25 C-54.403 57.96 -54.7 56.537 -55.5 53.25 C-51.286 54.733 -47.936 56.868 -44.25 59.375 C-36.42 64.581 -28.075 68.44 -19.5 72.25 C-19.461 71.152 -19.461 71.152 -19.422 70.031 C-18.797 58.11 -14.878 1.488 0 0 Z " fill="#090909" transform="translate(381.5,293.75)"/>
<path d="M0 0 C11.622 8.777 17.942 20.839 21.426 34.832 C21.618 35.449 21.81 36.067 22.008 36.703 C25.119 52.55 20.709 68.33 12.426 81.832 C2.906 94.179 -9.016 102.21 -24.574 104.832 C-43.728 106.12 -58.943 104.339 -73.824 91.457 C-85.489 80.467 -91.847 66.719 -92.754 50.648 C-93.122 33.269 -88.207 18.928 -76.574 5.832 C-56.55 -13.395 -22.827 -15.692 0 0 Z " fill="#F7F7F7" transform="translate(552.57421875,367.16796875)"/>
<path d="M0 0 C0.906 0.443 1.812 0.887 2.746 1.344 C11.682 5.907 19.171 11.985 26.125 19.188 C32.163 25.385 39.272 29.274 47 33 C47.33 33.33 47.66 33.66 48 34 C47.647 40.353 47.647 40.353 45.125 42.875 C40.974 45.073 37.646 45.24 33 45 C32.175 44.649 31.35 44.299 30.5 43.938 C26.945 42.604 24.625 42.993 21 44 C17.878 48.176 16.302 53.154 14.5 58 C12.667 62.931 10.92 67.584 8 72 C6 71 6 71 5.141 68.672 C4.847 67.708 4.553 66.743 4.25 65.75 C2.362 60.385 0.916 57.892 -4 55 C-8.226 53.669 -11.051 53.726 -15.062 55.438 C-21.555 59.122 -24.598 64.847 -27.375 71.562 C-29.879 77.29 -32.901 80.466 -38 84 C-38.946 84.665 -39.892 85.33 -40.867 86.016 C-50.34 92.138 -50.34 92.138 -56.434 90.852 C-60.467 89.513 -64.409 87.94 -68.36 86.377 C-81.636 81.285 -95.854 79.429 -110 79 C-109.01 55.633 -99.563 25.445 -82.043 9.184 C-73.843 2.765 -63.68 -0.472 -54 -4 C-52.998 -4.387 -51.997 -4.773 -50.965 -5.172 C-34.884 -10.575 -14.706 -7.617 0 0 Z " fill="#FCFCFC" transform="translate(617,101)"/>
<path d="M0 0 C0.495 1.485 0.495 1.485 1 3 C-0.109 4.867 -0.109 4.867 -1.75 6.875 C-7.823 14.393 -9.128 19.948 -12 30 C17.37 29.67 46.74 29.34 77 29 C76.67 30.65 76.34 32.3 76 34 C77.32 34.33 78.64 34.66 80 35 C80.788 38.535 81.175 41.902 81.316 45.52 C81.379 47.052 81.379 47.052 81.443 48.615 C81.483 49.67 81.522 50.725 81.562 51.812 C81.606 52.887 81.649 53.961 81.693 55.068 C81.799 57.712 81.901 60.356 82 63 C82.66 63.33 83.32 63.66 84 64 C84.66 64.66 85.32 65.32 86 66 C85.75 68.562 85.75 68.562 85 71 C81.84 72.58 78.465 72.184 75 72.188 C74.263 72.2 73.525 72.212 72.766 72.225 C70.842 72.23 68.919 72.122 67 72 C66.34 71.34 65.68 70.68 65 70 C65 69.01 65 68.02 65 67 C42.56 67 20.12 67 -3 67 C-3 67.99 -3 68.98 -3 70 C-6.272 71.636 -9.845 71.268 -13.438 71.312 C-14.602 71.356 -14.602 71.356 -15.791 71.4 C-21.501 71.464 -21.501 71.464 -24.035 69.105 C-25 67 -25 67 -25 65 C-25.66 64.963 -26.32 64.925 -27 64.887 C-46.662 63.581 -65.836 60.556 -85 56 C-85.99 57.32 -86.98 58.64 -88 60 C-94.221 59.548 -99.601 58.248 -105 55 C-107 52 -107 52 -107 49 C-108.361 48.814 -108.361 48.814 -109.75 48.625 C-112.59 48.079 -114.526 47.427 -117 46 C-117 48.64 -117 51.28 -117 54 C-117.33 54 -117.66 54 -118 54 C-118.027 52.542 -118.046 51.083 -118.062 49.625 C-118.074 48.813 -118.086 48.001 -118.098 47.164 C-118 45 -118 45 -117 43 C-116.01 42.34 -115.02 41.68 -114 41 C-114.99 40.67 -115.98 40.34 -117 40 C-117.105 31.929 -117.034 24.013 -116 16 C-114.206 16.34 -114.206 16.34 -112.375 16.688 C-109.028 17.132 -108.223 17.121 -105.125 15.438 C-101.666 13.846 -100.972 13.962 -97.418 14.762 C-96.085 15.056 -96.085 15.056 -94.725 15.357 C-93.825 15.569 -92.926 15.781 -92 16 C-91.194 16.19 -90.387 16.379 -89.557 16.575 C-87.945 16.962 -86.335 17.354 -84.725 17.75 C-62.653 23.184 -40.547 26.371 -18 29 C-18.263 18.165 -18.263 18.165 -22.062 8.25 C-25 3.08 -25 3.08 -25 1 C-21.632 2.407 -19.981 3.978 -17.875 6.938 C-17.377 7.627 -16.88 8.317 -16.367 9.027 C-15.227 10.673 -14.11 12.334 -13 14 C-12.472 13.238 -12.472 13.238 -11.934 12.461 C-8.431 7.578 -4.733 3.697 0 0 Z " fill="#0D0D0D" transform="translate(462,522)"/>
<path d="M0 0 C3.041 2.591 4.373 5.539 6.031 9.137 C6.308 9.735 6.586 10.333 6.871 10.95 C7.456 12.215 8.037 13.482 8.616 14.75 C9.49 16.667 10.375 18.579 11.262 20.49 C16.397 31.61 19.912 40.975 20.291 53.321 C20.787 69.42 22.201 85.563 27 101 C27.75 103.682 28.469 106.372 29.188 109.062 C29.532 110.332 29.876 111.602 30.23 112.91 C31 116 31 116 31 118 C31.69 118.121 32.379 118.242 33.09 118.367 C34.03 118.535 34.969 118.702 35.938 118.875 C36.854 119.037 37.771 119.2 38.715 119.367 C42 120 42 120 45.75 121.062 C53.359 122.773 61.312 122.208 69.062 122.125 C70.708 122.115 72.353 122.106 73.998 122.098 C77.999 122.076 81.999 122.041 86 122 C85.25 124.438 85.25 124.438 84 127 C72.168 132.441 50.322 128.602 37.871 125.656 C34.841 124.851 34.841 124.851 31 125 C30.786 130.341 30.65 135.064 33 140 C40.915 147.054 53.1 146.507 63.125 146.446 C65.234 146.438 67.341 146.466 69.449 146.498 C79.518 146.549 88.336 144.832 98 142 C99.531 141.572 99.531 141.572 101.093 141.135 C103.418 140.478 105.709 139.766 108 139 C108.701 138.765 109.403 138.531 110.125 138.289 C112.277 137.53 112.277 137.53 115 136 C116.319 132.592 116.309 128.865 116.562 125.25 C116.688 123.494 116.688 123.494 116.816 121.703 C116.877 120.811 116.938 119.919 117 119 C118.32 119 119.64 119 121 119 C121 123.95 121 128.9 121 134 C122.382 132.989 123.764 131.979 125.188 130.938 C129.311 127.922 129.311 127.922 132.801 128.316 C133.527 128.542 134.252 128.768 135 129 C135 131 135 133 135 135 C135.33 135.99 135.66 136.98 136 138 C110.609 156.068 74.976 161.44 44.75 156.535 C42.474 156.092 40.24 155.598 38 155 C38.108 157.904 38.108 157.904 39 161 C41.443 162.917 41.443 162.917 44 164 C43.34 164.99 42.68 165.98 42 167 C40.68 167 39.36 167 38 167 C37.908 171.141 37.908 171.141 39 175 C41.783 177 44.732 178.028 48 179 C48.563 179.175 49.126 179.35 49.705 179.531 C54.831 180.579 60.205 180.226 65.424 180.24 C67.597 180.25 69.769 180.281 71.941 180.312 C85.546 180.518 85.546 180.518 97.188 174.312 C100 172 100 172 103.062 171.562 C106.43 171.937 109.722 172.445 113.062 173 C130.519 175.76 148.142 173.533 164.482 166.894 C168.395 165.343 170.942 164.652 175 166 C175 167.333 175 168.667 175 170 C175.99 170.33 176.98 170.66 178 171 C168.903 181.3 149.109 183.764 136 185 C127.941 185.352 119.95 185.47 112 184 C105.465 183.336 102.457 184.18 97 188 C77.623 194.878 54.781 193.841 35.727 186.805 C31.764 184.182 29.669 181.461 28 177 C27.381 172.41 27.39 167.876 27.438 163.25 C27.454 160.839 27.454 158.427 27.434 156.016 C27.444 154.956 27.455 153.897 27.467 152.806 C26.883 149.299 25.612 148.317 23 146 C19.851 139.516 19.565 133.757 19.5 126.625 C19.428 118.848 18.542 112.355 16 105 C12.751 94.893 10.901 85.029 10.539 74.418 C9.669 50.698 5.917 33.778 -5.56 12.983 C-7.401 9.17 -7.948 6.204 -8 2 C-7.237 2.309 -6.474 2.619 -5.688 2.938 C-3.812 3.679 -1.913 4.362 0 5 C-0.278 4.041 -0.278 4.041 -0.562 3.062 C-0.707 2.382 -0.851 1.701 -1 1 C-0.67 0.67 -0.34 0.34 0 0 Z " fill="#080808" transform="translate(506,696)"/>
<path d="M0 0 C2.831 1.337 3.345 3.122 4.408 5.967 C4.644 6.66 4.881 7.352 5.125 8.066 C5.505 9.144 5.505 9.144 5.893 10.242 C6.667 12.488 7.403 14.742 8.125 17.004 C8.343 17.68 8.56 18.357 8.784 19.054 C12.931 32.379 14.941 46.478 8.602 59.422 C3.208 68.854 -3.696 75.427 -14.367 78.531 C-27.499 81.006 -38.333 77.371 -49.238 70.121 C-53.903 66.376 -57.328 61.782 -60.875 57.004 C-61.394 56.381 -61.914 55.759 -62.449 55.117 C-66.111 50.652 -68.827 45.692 -71.562 40.629 C-71.943 39.933 -72.324 39.238 -72.717 38.521 C-75.52 33.197 -77.32 27.809 -78.875 22.004 C-77.989 21.873 -77.104 21.743 -76.191 21.608 C-52.743 18.125 -20.952 0.044 0 0 Z " fill="#FCFCFC" transform="translate(715.875,378.99609375)"/>
<path d="M0 0 C0.461 0.352 0.923 0.704 1.398 1.066 C3.589 2.725 5.794 4.363 8 6 C9.069 6.812 9.069 6.812 10.16 7.641 C20.665 15.353 32.702 21.679 45 26 C45.47 44.181 43.24 57.621 35.617 74.188 C32.429 81.135 29.845 88.263 27.277 95.457 C26 99 26 99 25 101 C12.855 102.412 0.845 94.406 -8.285 87.195 C-15.149 81.011 -19.389 71.933 -20.203 62.695 C-20.594 41.25 -10.986 18.225 0 0 Z " fill="#FCFCFC" transform="translate(315,351)"/>
<path d="M0 0 C11.622 8.777 17.942 20.839 21.426 34.832 C21.618 35.449 21.81 36.067 22.008 36.703 C25.119 52.55 20.709 68.33 12.426 81.832 C2.906 94.179 -9.016 102.21 -24.574 104.832 C-43.728 106.12 -58.943 104.339 -73.824 91.457 C-85.489 80.467 -91.847 66.719 -92.754 50.648 C-93.122 33.269 -88.207 18.928 -76.574 5.832 C-56.55 -13.395 -22.827 -15.692 0 0 Z M-62.789 16.461 C-70.558 26.78 -73.857 40.02 -72.574 52.832 C-70.488 66.863 -64.786 79.946 -53.191 88.613 C-43.156 95.031 -32.762 97.468 -20.941 95.363 C-9.643 92.388 -0.009 85.627 6.371 75.852 C13.42 63.508 16.619 50.588 13.734 36.441 C10.084 23.551 3.921 11.59 -8.055 4.754 C-28.943 -6.35 -47.818 -1.189 -62.789 16.461 Z " fill="#0B0B0B" transform="translate(552.57421875,367.16796875)"/>
<path d="M0 0 C5.75 0.75 5.75 0.75 8 3 C8.256 5.553 8.381 7.945 8.375 10.5 C8.374 11.579 8.374 11.579 8.372 12.681 C8.224 19.377 6.906 25.601 2.448 30.816 C0.712 33.435 0.644 34.85 0.664 37.965 C0.655 38.924 0.646 39.882 0.636 40.87 C0.632 41.883 0.629 42.895 0.625 43.938 C0.398 53.364 -0.518 60.574 -5 69 C-5.503 69.978 -6.005 70.957 -6.523 71.965 C-10.144 78.517 -10.144 78.517 -12.723 79.973 C-16.342 80.016 -19.202 78.259 -22.375 76.688 C-30.792 72.731 -39.431 69.658 -48.25 66.75 C-49.492 66.338 -50.734 65.927 -52.013 65.503 C-55.668 64.308 -59.33 63.145 -63 62 C-64.154 61.64 -65.308 61.28 -66.497 60.909 C-75.037 58.35 -83.574 56.694 -92.375 55.312 C-93.676 55.1 -94.976 54.888 -96.316 54.67 C-105.221 53.231 -113.975 51.905 -123 51.684 C-123.721 51.663 -124.442 51.642 -125.185 51.621 C-127.457 51.556 -129.728 51.497 -132 51.438 C-133.553 51.394 -135.107 51.351 -136.66 51.307 C-140.44 51.2 -144.22 51.099 -148 51 C-145.787 45.353 -143.356 40.323 -139 36 C-135.563 34.721 -132.56 35.414 -129 36 C-127.078 36.193 -127.078 36.193 -125.117 36.391 C-113.441 37.718 -102.606 41.132 -91.52 44.951 C-90.373 45.342 -89.225 45.734 -88.043 46.137 C-87.022 46.495 -86.002 46.853 -84.95 47.221 C-76.611 49.422 -71.138 46.07 -64 42 C-61.566 40.422 -59.298 38.775 -57 37 C-53.716 38.056 -52.428 39.617 -50.75 42.5 C-49 46 -49 46 -49 48 C-47.522 48.194 -46.042 48.38 -44.562 48.562 C-43.327 48.719 -43.327 48.719 -42.066 48.879 C-41.384 48.919 -40.703 48.959 -40 49 C-38.778 47.971 -38.778 47.971 -38.625 45.812 C-39.157 41.82 -41.366 39.955 -44 37 C-46.402 29.795 -45.251 22.974 -42.207 16.145 C-40.568 13.233 -38.961 11.554 -36 10 C-33.973 10.168 -33.973 10.168 -32 11 C-30.84 12.75 -30.84 12.75 -29.938 15 C-29.446 16.21 -29.446 16.21 -28.945 17.445 C-27.531 21.268 -26.225 25.113 -25 29 C-24.505 30.485 -24.505 30.485 -24 32 C-19.855 32.073 -17.264 32.112 -14.086 29.316 C-7.132 20.724 -3.575 10.326 0 0 Z " fill="#F9F9F9" transform="translate(643,154)"/>
<path d="M0 0 C0.33 0 0.66 0 1 0 C2.188 9.446 2.242 18.87 2.25 28.375 C2.251 29.249 2.252 30.123 2.253 31.024 C2.228 63.92 -0.628 97.648 -7.863 129.77 C-9.28 136.128 -10.467 142.531 -11.664 148.934 C-11.929 150.347 -12.194 151.759 -12.46 153.172 C-13.699 159.741 -14.928 166.305 -15.91 172.918 C-16.099 174.172 -16.099 174.172 -16.291 175.451 C-16.505 176.924 -16.705 178.398 -16.887 179.875 C-17.511 184.205 -18.533 186.322 -22 189 C-23.837 190.147 -25.715 191.23 -27.625 192.25 C-29.067 193.031 -29.067 193.031 -30.539 193.828 C-33 195 -33 195 -35 195 C-35.125 189.985 -34.692 185.283 -33.793 180.363 C-33.605 179.295 -33.605 179.295 -33.414 178.205 C-33.147 176.689 -32.878 175.175 -32.607 173.66 C-31.898 169.691 -31.213 165.718 -30.523 161.746 C-30.255 160.206 -29.986 158.665 -29.718 157.125 C-26.646 139.484 -24.739 121.814 -23.318 103.97 C-23.119 101.484 -22.906 98.999 -22.673 96.516 C-21.929 87.427 -22.05 78.451 -22.254 69.34 C-22.279 68.003 -22.304 66.665 -22.328 65.328 C-22.34 64.658 -22.352 63.988 -22.364 63.298 C-22.388 61.929 -22.412 60.559 -22.436 59.19 C-22.5 55.696 -22.582 52.204 -22.699 48.711 C-22.791 45.948 -22.857 43.187 -22.891 40.423 C-22.924 37.842 -22.994 35.261 -23.107 32.683 C-23.136 24.194 -23.136 24.194 -19.806 20.695 C-17.275 18.921 -14.725 17.451 -12 16 C-6.939 11.629 -2.99 5.981 0 0 Z " fill="#F9F9F9" transform="translate(659,612)"/>
<path d="M0 0 C11.086 7.434 18.26 18.982 21.266 31.945 C23.541 46.855 20.239 61.345 11.703 73.812 C4.622 82.588 -5.138 88.826 -16.297 90.812 C-28.19 91.948 -38.822 89.217 -48.297 81.812 C-57.709 72.416 -64.061 61.133 -65.297 47.812 C-65.379 46.964 -65.462 46.116 -65.547 45.242 C-66.224 31.073 -61.495 18.208 -52.348 7.539 C-37.93 -7.7 -18.214 -10.583 0 0 Z M-47.297 17.812 C-54.716 28.376 -55.359 39.301 -54.297 51.812 C-52.514 61.028 -47.305 68.976 -39.859 74.688 C-32.092 79.643 -24.51 81.129 -15.297 79.812 C-8.659 77.475 -2.81 74.313 1.703 68.812 C2.384 68.049 3.064 67.286 3.766 66.5 C10.629 56.98 12.793 47.066 11.426 35.457 C9.619 25.732 4.666 16.474 -3.176 10.344 C-18.665 -0.084 -35.304 4.52 -47.297 17.812 Z " fill="#F1F1F1" transform="translate(545.296875,372.1875)"/>
<path d="M0 0 C1.713 0.259 1.713 0.259 3.934 0.793 C5.155 1.082 5.155 1.082 6.402 1.376 C7.688 1.685 7.688 1.685 9 2 C10.657 2.372 12.315 2.743 13.973 3.113 C15.67 3.512 17.366 3.911 19.062 4.312 C19.909 4.5 20.755 4.688 21.627 4.881 C27.323 6.247 32.52 8.098 37 12 C38.219 14.161 38.219 14.161 39 16 C25.274 27.594 2.851 31.011 -14.641 31.281 C-16.024 31.309 -16.024 31.309 -17.435 31.337 C-20.373 31.396 -23.312 31.448 -26.25 31.5 C-30.109 31.568 -33.969 31.642 -37.828 31.719 C-39.133 31.739 -39.133 31.739 -40.465 31.76 C-45.603 31.862 -50.654 32.221 -55.763 32.772 C-70.102 34.235 -88.468 35.355 -101 27 C-101.188 23.875 -101.188 23.875 -101 21 C-99.399 21.217 -99.399 21.217 -97.766 21.438 C-66.071 25.484 -28.92 22.597 -2.582 2.348 C-1.065 1.092 -1.065 1.092 0 0 Z " fill="#F7F7F7" transform="translate(645,830)"/>
<path d="M0 0 C22.44 0 44.88 0 68 0 C68.818 3.273 69.119 5.48 69.098 8.766 C69.093 10.1 69.093 10.1 69.088 11.461 C69.075 12.842 69.075 12.842 69.062 14.25 C69.058 15.186 69.053 16.122 69.049 17.086 C69.037 19.391 69.021 21.695 69 24 C60.742 24.023 52.484 24.041 44.225 24.052 C40.391 24.057 36.556 24.064 32.721 24.075 C29.019 24.086 25.316 24.092 21.614 24.095 C20.203 24.097 18.792 24.1 17.381 24.106 C15.402 24.113 13.422 24.113 11.443 24.114 C10.317 24.116 9.191 24.118 8.031 24.12 C5 24 5 24 0 23 C0 15.41 0 7.82 0 0 Z " fill="#CACACA" transform="translate(458,559)"/>
<path d="M0 0 C2.224 0.262 4.448 0.522 6.672 0.781 C37.163 4.512 66.81 11.541 96 21 C97.458 21.454 97.458 21.454 98.945 21.918 C108.83 25.071 118.398 29.085 128 33 C127.84 33.554 127.679 34.109 127.514 34.68 C127.316 35.404 127.118 36.129 126.914 36.875 C126.712 37.594 126.511 38.314 126.303 39.055 C125.752 41.129 125.752 41.129 127.375 43 C128.179 43.495 128.179 43.495 129 44 C127 45 127 45 124.647 44.247 C123.663 43.838 122.678 43.429 121.664 43.008 C120.552 42.554 119.439 42.101 118.293 41.634 C117.083 41.136 115.872 40.638 114.625 40.125 C73.762 23.663 31.386 13.928 -12.549 10.987 C-13.298 10.934 -14.047 10.882 -14.819 10.827 C-16.86 10.684 -18.902 10.553 -20.944 10.423 C-24 10 -24 10 -26 8 C-20.765 -4.152 -11.001 -1.491 0 0 Z " fill="#0A0A0A" transform="translate(478,498)"/>
<path d="M0 0 C2 2 2 2 2.266 4.645 C2.26 5.69 2.255 6.735 2.25 7.812 C2.258 9.369 2.258 9.369 2.266 10.957 C1.986 14.158 1.63 16.227 0 19 C-8.57 23.988 -19.413 25.775 -29 28 C-29.583 28.177 -30.165 28.354 -30.765 28.537 C-35.963 29.614 -41.445 29.226 -46.742 29.24 C-48.965 29.25 -51.187 29.281 -53.41 29.312 C-73.903 29.466 -73.903 29.466 -81.688 23.625 C-86.006 18.723 -85.122 13.226 -85 7 C-80.687 5.785 -77.81 6.365 -73.5 7.438 C-49.8 12.478 -22.096 10.173 0 0 Z " fill="#F9F9F9" transform="translate(621,814)"/>
<path d="M0 0 C4.468 0.593 8.808 1.37 13.195 2.395 C22.346 4.389 31.589 5.519 40.875 6.688 C42.642 6.914 44.409 7.141 46.176 7.369 C50.45 7.92 54.725 8.46 59 9 C59 16.92 59 24.84 59 33 C8.143 28.762 8.143 28.762 -2 22 C-3.325 14.848 -1.352 7.025 0 0 Z " fill="#C9C9C9" transform="translate(377,548)"/>
<path d="M0 0 C1.292 4.915 1.111 9.773 1.062 14.812 C1.058 15.696 1.053 16.58 1.049 17.49 C1.037 19.66 1.019 21.83 1 24 C-17.773 26.702 -37.021 28.631 -56 28 C-56.337 24.959 -56.67 21.917 -57 18.875 C-57.095 18.019 -57.191 17.163 -57.289 16.281 C-57.768 11.83 -58.118 7.486 -58 3 C-57.389 2.98 -56.779 2.96 -56.149 2.94 C-42.117 2.469 -28.13 1.731 -14.13 0.661 C-13.009 0.575 -11.889 0.49 -10.734 0.402 C-9.747 0.325 -8.759 0.247 -7.741 0.168 C-5.152 0.009 -2.593 -0.03 0 0 Z " fill="#C8C8C8" transform="translate(605,554)"/>
<path d="M0 0 C0.568 0.193 1.137 0.387 1.723 0.586 C23.677 7.99 45.621 8.061 67.885 1.573 C70.23 0.938 72.618 0.476 75 0 C75 4.95 75 9.9 75 15 C62.28 22.914 48.993 25.386 34.188 25.312 C32.467 25.306 32.467 25.306 30.712 25.3 C9.405 25.015 9.405 25.015 2 18 C-1.293 12.511 -1.631 7.332 -1 1 C-0.67 0.67 -0.34 0.34 0 0 Z " fill="#F9F9F9" transform="translate(381,805)"/>
<path d="M0 0 C5.055 0.815 8.689 1.939 12.656 5.41 C13.844 7.348 13.844 7.348 13.656 9.41 C5.583 19.567 -6.899 22.707 -18.969 25.285 C-27.26 27.116 -35.127 29.031 -42.926 32.43 C-49.633 35.15 -56.787 34.667 -63.906 34.723 C-65.119 34.752 -66.331 34.781 -67.58 34.811 C-75.829 34.868 -82.748 33.708 -90.344 30.41 C-91.344 29.41 -91.344 29.41 -91.441 27.125 C-91.43 26.208 -91.418 25.292 -91.406 24.348 C-91.397 23.429 -91.388 22.509 -91.379 21.562 C-91.367 20.852 -91.356 20.142 -91.344 19.41 C-90.715 19.543 -90.086 19.676 -89.438 19.812 C-88.154 20.077 -88.154 20.077 -86.844 20.348 C-85.591 20.609 -85.591 20.609 -84.312 20.875 C-67.059 23.985 -50.21 23.018 -33.344 18.41 C-31.791 17.994 -31.791 17.994 -30.207 17.57 C-21.061 14.673 -12.331 9.019 -5.207 2.629 C-2.344 0.41 -2.344 0.41 0 0 Z " fill="#F6F6F6" transform="translate(478.34375,817.58984375)"/>
<path d="M0 0 C1.675 0.286 3.344 0.618 5 1 C5 2.98 5 4.96 5 7 C5.866 7.082 6.732 7.165 7.625 7.25 C11.477 8.106 13.848 9.674 17 12 C16.67 13.65 16.34 15.3 16 17 C12.447 18.149 11.2 18.087 7.688 16.562 C6.801 16.047 5.914 15.531 5 15 C5 18.63 5 22.26 5 26 C6.382 26.371 7.764 26.743 9.188 27.125 C14.206 28.835 16.342 30.37 19 35 C19.781 39.299 19.512 42.788 17.812 46.812 C14.774 50.479 12.404 52.682 7.688 53.75 C6.801 53.832 5.914 53.915 5 54 C5 55.98 5 57.96 5 60 C3.344 60.382 1.675 60.714 0 61 C-1 60 -1 60 -1.062 56.938 C-1.032 55.483 -1.032 55.483 -1 54 C-1.825 53.938 -2.65 53.876 -3.5 53.812 C-7.969 52.775 -11.554 51.062 -15 48 C-15.625 45.312 -15.625 45.312 -15 43 C-14.34 42.34 -13.68 41.68 -13 41 C-8.33 41.267 -4.902 43.628 -1 46 C-0.896 41.876 -0.982 38.012 -2 34 C-3.936 32.242 -5.521 31.553 -7.992 30.746 C-10.331 29.877 -11.429 28.923 -13 27 C-14.761 21.718 -14.796 17.623 -12.375 12.688 C-9.762 9.731 -7.668 8.405 -4 7 C-3.01 7 -2.02 7 -1 7 C-1.021 6.031 -1.041 5.061 -1.062 4.062 C-1 1 -1 1 0 0 Z " fill="#090909" transform="translate(522,384)"/>
<path d="M0 0 C0.99 0.33 1.98 0.66 3 1 C3.116 7.695 2.713 14.164 1.938 20.812 C1.751 22.425 1.751 22.425 1.561 24.071 C-1.166 46.459 -4.84 68.834 -9 91 C-5.04 89.02 -1.08 87.04 3 85 C3.99 85.99 3.99 85.99 5 87 C7.584 87.167 7.584 87.167 10 87 C10.054 89.417 10.094 91.833 10.125 94.25 C10.142 94.932 10.159 95.614 10.176 96.316 C10.241 103.062 10.241 103.062 8 106 C5.504 107.887 5.504 107.887 2.562 109.688 C1.594 110.289 0.626 110.891 -0.371 111.512 C-3 113 -3 113 -6 114 C-6.33 109.38 -6.66 104.76 -7 100 C-12.321 98.936 -13.053 99.142 -17.688 101.25 C-25.885 104.633 -34.256 105.793 -43 107 C-42.34 105.35 -41.68 103.7 -41 102 C-41.99 101.67 -42.98 101.34 -44 101 C-42.828 100.758 -41.656 100.515 -40.449 100.266 C-31.708 98.416 -23.286 96.431 -15 93 C-14.853 91.962 -14.706 90.925 -14.555 89.855 C-13.359 81.596 -12.084 73.359 -10.605 65.145 C-10.089 62.263 -9.575 59.382 -9.062 56.5 C-8.932 55.767 -8.802 55.035 -8.667 54.28 C-6.263 40.645 -4.615 26.979 -3.293 13.199 C-3.22 12.462 -3.146 11.725 -3.07 10.965 C-2.872 8.969 -2.685 6.973 -2.499 4.976 C-2 2 -2 2 0 0 Z " fill="#111111" transform="translate(633,716)"/>
<path d="M0 0 C3.589 1.485 5.56 3.501 8.062 6.438 C10.303 9.048 12.528 11.605 15 14 C15 12.68 15 11.36 15 10 C15.66 10 16.32 10 17 10 C17 9.34 17 8.68 17 8 C18.688 7.188 18.688 7.188 21 7 C22.101 8.135 23.194 9.279 24.25 10.457 C32.121 17.397 41.757 19.335 51.879 19.211 C62.697 18.48 72.005 13.37 79.375 5.562 C79.981 4.863 80.587 4.163 81.211 3.441 C81.801 2.966 82.392 2.49 83 2 C85.227 2.277 85.227 2.277 87 3 C87 3.99 87 4.98 87 6 C87.99 6.33 88.98 6.66 90 7 C80.017 18.658 69.506 26.387 54 29 C36.509 30.176 21.237 29.233 7.262 17.75 C-0.571 10.858 -0.571 10.858 -3 7 C-2.688 4.25 -2.688 4.25 -2 2 C-1.34 2 -0.68 2 0 2 C0 1.34 0 0.68 0 0 Z M87 1 C87.66 1 88.32 1 89 1 C89 1.66 89 2.32 89 3 C88.34 3 87.68 3 87 3 C87 2.34 87 1.68 87 1 Z " fill="#090909" transform="translate(474,443)"/>
<path d="M0 0 C8.912 6.932 15.295 15.762 17.566 27.074 C18.905 38.569 17.335 50.386 10.812 60.188 C4.597 68.004 -2.084 74.978 -12.188 77.188 C-24.446 78.258 -33.605 76.514 -43.121 68.574 C-52.985 59.568 -56.958 47.939 -57.562 34.875 C-57.266 21.794 -51.672 11.277 -42.438 2.375 C-29.383 -8.737 -14.484 -8.236 0 0 Z M-45.188 11.188 C-52.606 21.751 -53.249 32.676 -52.188 45.188 C-50.404 54.403 -45.196 62.351 -37.75 68.062 C-29.982 73.018 -22.4 74.504 -13.188 73.188 C-6.549 70.85 -0.7 67.688 3.812 62.188 C4.493 61.424 5.174 60.661 5.875 59.875 C12.739 50.355 14.902 40.441 13.535 28.832 C11.728 19.107 6.775 9.849 -1.066 3.719 C-16.556 -6.709 -33.194 -2.105 -45.188 11.188 Z " fill="#121212" transform="translate(543.1875,378.8125)"/>
<path d="M0 0 C1.913 2.504 3.524 4.75 4.688 7.688 C4.939 8.289 5.19 8.891 5.449 9.512 C6.95 16.292 5.842 23.183 4.531 29.906 C4.298 31.151 4.298 31.151 4.059 32.421 C3.549 35.116 3.026 37.808 2.5 40.5 C2.321 41.427 2.143 42.355 1.959 43.31 C-0.963 58.465 -4.337 73.463 -8.129 88.422 C-9.405 93.475 -10.552 98.533 -11.59 103.641 C-11.84 104.843 -12.091 106.045 -12.349 107.283 C-12.809 109.517 -13.247 111.755 -13.659 113.998 C-14.686 118.894 -15.43 122.139 -19.559 125.203 C-23 127 -23 127 -25 127 C-24.409 120.758 -23.398 114.841 -21.938 108.75 C-19.137 96.75 -16.534 84.709 -13.948 72.661 C-13.603 71.058 -13.259 69.455 -12.914 67.852 C-12.747 67.073 -12.58 66.294 -12.407 65.492 C-11.492 61.246 -10.556 57.007 -9.586 52.773 C-5.608 35.322 -2.833 17.667 0 0 Z " fill="#F3F3F3" transform="translate(484,670)"/>
<path d="M0 0 C0.66 0.33 1.32 0.66 2 1 C2 1.99 2 2.98 2 4 C2.99 3.67 3.98 3.34 5 3 C5.402 7.383 4.476 9.177 1.75 12.562 C-6.229 23.367 -8.442 37.049 -6.539 50.18 C-4.486 60.252 -0.626 69.101 6 77 C4.515 77.495 4.515 77.495 3 78 C2.67 80.31 2.34 82.62 2 85 C1.34 84.67 0.68 84.34 0 84 C0 83.34 0 82.68 0 82 C-0.868 81.629 -0.868 81.629 -1.754 81.25 C-10.176 76.563 -15.084 66.857 -17.969 58.039 C-22.066 42.675 -21.048 28.491 -13.062 14.625 C-9.38 8.851 -5.55 4.123 0 0 Z " fill="#0B0B0B" transform="translate(488,373)"/>
<path d="M0 0 C0.495 1.485 0.495 1.485 1 3 C3.504 4.219 3.504 4.219 6 5 C5.67 5.99 5.34 6.98 5 8 C4.559 10.141 4.148 12.288 3.75 14.438 C3.62 15.132 3.49 15.827 3.356 16.543 C2.532 20.982 1.755 25.427 1.008 29.879 C-2.099 48.167 -6.085 66.197 -10.233 84.272 C-12.184 92.776 -14.083 101.292 -15.973 109.81 C-16.489 112.138 -17.007 114.465 -17.525 116.793 C-17.839 118.21 -18.154 119.626 -18.469 121.043 C-18.878 122.884 -18.878 122.884 -19.295 124.762 C-19.892 127.504 -20.461 130.247 -21 133 C-20.216 132.484 -19.433 131.969 -18.625 131.438 C-17.759 130.963 -16.892 130.489 -16 130 C-13.321 131.34 -11.867 132.635 -10 135 C-9.471 139.758 -9.932 143.677 -12 148 C-13.884 150 -15.731 151.393 -18 153 C-18.66 153 -19.32 153 -20 153 C-20.495 147.06 -20.495 147.06 -21 141 C-25.485 141.656 -29.669 142.701 -34 144 C-34.66 143.34 -35.32 142.68 -36 142 C-35.879 139.984 -35.879 139.984 -35 138 C-33.152 136.953 -33.152 136.953 -30.938 136.25 C-30.204 136.008 -29.471 135.765 -28.715 135.516 C-28.149 135.345 -27.583 135.175 -27 135 C-26.902 134.247 -26.804 133.494 -26.703 132.719 C-25.832 126.528 -24.711 120.559 -23.156 114.5 C-22.797 113.085 -22.438 111.671 -22.079 110.256 C-21.898 109.545 -21.718 108.835 -21.531 108.102 C-12.516 72.434 -5.25 36.413 0 0 Z M-13 128 C-12.34 128.66 -11.68 129.32 -11 130 C-11.99 130 -12.98 130 -14 130 C-13.67 129.34 -13.34 128.68 -13 128 Z " fill="#121212" transform="translate(480,664)"/>
<path d="M0 0 C0.66 0 1.32 0 2 0 C1.244 4.236 -0.467 5.86 -3.75 8.488 C-22.602 21.154 -49.596 21.538 -71 18 C-75.734 17.36 -75.734 17.36 -79.914 19.273 C-81.216 20.304 -82.487 21.375 -83.715 22.492 C-90.728 27.12 -99.534 26.372 -107.616 26.371 C-109.732 26.375 -111.846 26.411 -113.961 26.449 C-122.476 26.519 -130.171 25.68 -138 22 C-140 20 -140 20 -140.195 18.055 C-140.13 16.036 -140.065 14.018 -140 12 C-138.573 12.433 -138.573 12.433 -137.117 12.875 C-126.817 15.704 -116.831 16.375 -106.188 16.312 C-104.212 16.302 -104.212 16.302 -102.197 16.291 C-95.894 16.311 -95.894 16.311 -89.673 15.496 C-85.725 14.763 -81.816 14.844 -77.809 14.824 C-75.956 14.801 -74.104 14.777 -72.252 14.752 C-69.37 14.717 -66.488 14.688 -63.606 14.674 C-45.565 14.572 -13.795 13.795 0 0 Z " fill="#F6F6F6" transform="translate(684,851)"/>
<path d="M0 0 C0.437 18.22 -2.201 31.221 -14.852 45.137 C-17.061 47.053 -18.219 47.428 -21 48 C-21.432 42.896 -21.859 37.791 -22.282 32.686 C-22.426 30.953 -22.571 29.22 -22.718 27.487 C-22.93 24.983 -23.137 22.478 -23.344 19.973 C-23.409 19.21 -23.475 18.447 -23.543 17.661 C-23.968 12.425 -24.055 7.254 -24 2 C-21.313 1.661 -18.626 1.329 -15.938 1 C-14.809 0.857 -14.809 0.857 -13.658 0.711 C-9.066 0.154 -4.626 -0.098 0 0 Z " fill="#F6F6F6" transform="translate(658,579)"/>
<path d="M0 0 C3.243 2.82 3.836 5.118 4.203 9.332 C4.356 17.43 2.346 23.279 -3.152 29.305 C-13.575 38.868 -29.338 43.069 -43.25 43.125 C-44.158 43.084 -45.065 43.043 -46 43 C-46.186 43.742 -46.371 44.485 -46.562 45.25 C-48.63 49.206 -51.006 50.075 -55 52 C-55.66 52 -56.32 52 -57 52 C-58.236 48.292 -57.496 47.49 -56 44 C-55.897 43.175 -55.794 42.35 -55.688 41.5 C-54.72 37.982 -52.699 36.37 -50 34 C-47.765 32.882 -46.112 32.699 -43.633 32.422 C-24.636 30.289 -24.636 30.289 -9 20 C-7.602 17.349 -7.602 17.349 -7 15 C-7.681 15.742 -7.681 15.742 -8.375 16.5 C-10 18 -10 18 -12 18 C-11.51 13.688 -10.673 11.37 -8 8 C-8 7.01 -8 6.02 -8 5 C-7.01 5 -6.02 5 -5 5 C-2.312 2.562 -2.312 2.562 0 0 Z " fill="#090909" transform="translate(499,819)"/>
<path d="M0 0 C0 1.32 0 2.64 0 4 C0.304 5.672 0.631 7.341 1 9 C1.66 9 2.32 9 3 9 C2.67 18.57 2.34 28.14 2 38 C-7 36 -7 36 -10 33 C-10.99 34.32 -11.98 35.64 -13 37 C-13 36.01 -13 35.02 -13 34 C-14.361 33.814 -14.361 33.814 -15.75 33.625 C-18.59 33.079 -20.526 32.427 -23 31 C-23 33.64 -23 36.28 -23 39 C-23.33 39 -23.66 39 -24 39 C-24.027 37.542 -24.046 36.083 -24.062 34.625 C-24.074 33.813 -24.086 33.001 -24.098 32.164 C-24 30 -24 30 -23 28 C-22.01 27.34 -21.02 26.68 -20 26 C-20.99 25.67 -21.98 25.34 -23 25 C-23.105 16.929 -23.034 9.013 -22 1 C-20.206 1.34 -20.206 1.34 -18.375 1.688 C-15.03 2.128 -14.155 2.078 -11 0.5 C-6.857 -1.571 -4.489 -0.851 0 0 Z " fill="#0D0D0D" transform="translate(368,537)"/>
<path d="M0 0 C3.908 -0.307 6.299 -0.387 9.469 2.094 C14.277 7.466 14.277 7.466 14.277 10.379 C13.298 10.438 13.298 10.438 12.3 10.499 C-8.058 11.79 -26.642 14.295 -45.684 21.793 C-55.22 25.546 -55.22 25.546 -58.723 24.379 C-59.053 25.039 -59.383 25.699 -59.723 26.379 C-61.373 25.389 -63.023 24.399 -64.723 23.379 C-61.625 16.448 -55.704 12.953 -48.858 10.209 C-48.009 9.894 -47.16 9.579 -46.285 9.254 C-45.386 8.915 -44.488 8.576 -43.562 8.226 C-32.91 4.427 -21.901 2.809 -10.723 1.379 C-9.965 1.281 -9.207 1.183 -8.427 1.082 C-4.211 0.557 -4.211 0.557 0 0 Z " fill="#070707" transform="translate(410.72265625,496.62109375)"/>
<path d="M0 0 C0.495 1.485 0.495 1.485 1 3 C-4.606 10.984 -12.852 15.722 -22.428 17.434 C-26.145 18.001 -29.866 18.511 -33.6 18.961 C-40.015 19.69 -40.015 19.69 -46 22 C-46.289 22.619 -46.577 23.237 -46.875 23.875 C-49.048 27.979 -53.853 29.546 -58 31.188 C-70.599 34.6 -89.026 35.617 -101 30 C-103.258 28.625 -103.258 28.625 -105 27 C-105.25 23.312 -105.25 23.312 -105 20 C-102.572 20.477 -100.152 20.965 -97.742 21.524 C-91.165 23 -84.853 23.349 -78.125 23.312 C-77.062 23.308 -75.999 23.303 -74.904 23.298 C-67.519 23.187 -61.001 22.444 -54 20 C-52.185 19.415 -50.37 18.831 -48.552 18.255 C-47.219 17.833 -45.887 17.406 -44.557 16.973 C-39.783 15.454 -34.99 14.291 -30.097 13.222 C-13.539 9.65 -13.539 9.65 0 0 Z " fill="#F3F3F3" transform="translate(492,833)"/>
<path d="M0 0 C0.99 0.99 0.99 0.99 2 2 C1.938 4.441 1.938 4.441 1 7 C-6.85 13.051 -18.033 14.611 -27.46 16.739 C-34.929 18.439 -42.133 20.503 -49.343 23.084 C-57.255 25.902 -64.43 26.182 -72.75 26.188 C-73.784 26.2 -74.818 26.212 -75.883 26.225 C-82.494 26.237 -88.577 25.575 -95 24 C-94.67 22.35 -94.34 20.7 -94 19 C-92.689 19.238 -92.689 19.238 -91.352 19.48 C-85.391 20.323 -79.384 20.265 -73.375 20.312 C-71.583 20.356 -71.583 20.356 -69.754 20.4 C-61.146 20.461 -54.069 18.905 -46 16 C-39.504 13.875 -33.087 11.981 -26.383 10.652 C-17.677 8.911 -6.532 6.532 0 0 Z " fill="#0E0E0E" transform="translate(487,831)"/>
<path d="M0 0 C2.915 0.201 4.049 1.044 6.25 3 C8.634 7.087 8.691 10.373 8 15 C6.251 19.142 3.753 21.556 0 24 C-3.312 24.75 -3.312 24.75 -6 25 C-6 26.98 -6 28.96 -6 31 C-7.656 31.382 -9.325 31.714 -11 32 C-12 31 -12 31 -12.062 27.938 C-12.032 26.483 -12.032 26.483 -12 25 C-12.825 24.938 -13.65 24.876 -14.5 24.812 C-18.969 23.775 -22.554 22.062 -26 19 C-26.625 16.312 -26.625 16.312 -26 14 C-25.34 13.34 -24.68 12.68 -24 12 C-19.33 12.267 -15.902 14.628 -12 17 C-12 14.69 -12 12.38 -12 10 C-11.34 10 -10.68 10 -10 10 C-9.67 9.34 -9.34 8.68 -9 8 C-7.5 9.125 -7.5 9.125 -6 11 C-5.812 14.188 -5.812 14.188 -6 17 C-3.573 16.06 -2.28 15.542 -1.062 13.188 C-0.975 10.116 -2.282 8.474 -4 6 C-3.34 6 -2.68 6 -2 6 C-1.856 5.196 -1.711 4.391 -1.562 3.562 C-1 1 -1 1 0 0 Z " fill="#0B0B0B" transform="translate(533,413)"/>
<path d="M0 0 C2.5 0.125 2.5 0.125 3.5 1.125 C3.572 2.978 3.584 4.833 3.562 6.688 C3.553 7.699 3.544 8.711 3.535 9.754 C3.524 10.536 3.512 11.319 3.5 12.125 C4.201 11.156 4.902 10.186 5.625 9.188 C7.772 6.573 8.358 6.162 11.812 5.25 C13.143 5.188 13.143 5.188 14.5 5.125 C15.254 7.289 15.254 7.289 15.5 10.125 C13.84 12.773 13.84 12.773 11.438 15.5 C10.607 16.453 9.777 17.405 8.922 18.387 C8.123 19.29 7.323 20.194 6.5 21.125 C5.395 22.52 4.291 23.916 3.188 25.312 C2.301 26.241 1.414 27.169 0.5 28.125 C-3.5 28.125 -3.5 28.125 -4.932 26.796 C-5.359 26.186 -5.786 25.577 -6.227 24.949 C-6.701 24.286 -7.175 23.623 -7.664 22.939 C-8.146 22.238 -8.628 21.536 -9.125 20.812 C-9.615 20.122 -10.105 19.432 -10.609 18.721 C-16.764 10.018 -16.764 10.018 -16.5 5.125 C-14.25 4.375 -14.25 4.375 -11.5 4.125 C-8.878 6.223 -7.368 8.323 -5.5 11.125 C-5.367 10.415 -5.234 9.704 -5.098 8.973 C-4.921 8.054 -4.744 7.134 -4.562 6.188 C-4.388 5.271 -4.214 4.354 -4.035 3.41 C-3.3 0.273 -3.261 0.163 0 0 Z " fill="#0B0B0B" transform="translate(439.5,477.875)"/>
<path d="M0 0 C-1 3 -1 3 -2.572 4.011 C-3.586 4.452 -3.586 4.452 -4.621 4.902 C-5.763 5.399 -5.763 5.399 -6.928 5.906 C-7.756 6.247 -8.584 6.587 -9.438 6.938 C-10.718 7.465 -10.718 7.465 -12.025 8.004 C-31.908 15.915 -50.271 16.687 -71 12 C-70.34 11.01 -69.68 10.02 -69 9 C-69 7.68 -69 6.36 -69 5 C-64.91 4.822 -61.4 5.064 -57.406 5.984 C-52.031 7.091 -46.854 7.384 -41.375 7.375 C-39.943 7.374 -39.943 7.374 -38.481 7.372 C-29.807 7.229 -22.267 5.569 -14 3 C-11.898 2.409 -9.794 1.825 -7.688 1.25 C-6.846 1.008 -6.004 0.765 -5.137 0.516 C-3 0 -3 0 0 0 Z " fill="#171717" transform="translate(564,650)"/>
<path d="M0 0 C0.66 0.33 1.32 0.66 2 1 C1.564 1.51 1.129 2.021 0.68 2.547 C-11.98 18.002 -14.605 33.551 -13 53 C-11.368 63.707 -6.486 72.502 0 81 C-3 81 -3 81 -5.086 79.164 C-16.471 66.536 -20.971 52.897 -20.348 35.863 C-19.172 22.799 -12.199 10.079 -2.188 1.625 C-1.466 1.089 -0.744 0.553 0 0 Z " fill="#ECECEC" transform="translate(488,373)"/>
<path d="M0 0 C7.305 3.653 13.861 7.264 20.625 11.688 C21.534 12.268 22.443 12.849 23.379 13.447 C24.236 14.005 25.093 14.562 25.977 15.137 C27.138 15.89 27.138 15.89 28.323 16.659 C28.876 17.101 29.43 17.544 30 18 C30 18.66 30 19.32 30 20 C26.084 20.504 22.167 21.003 18.25 21.5 C17.139 21.643 16.028 21.786 14.883 21.934 C13.813 22.069 12.743 22.204 11.641 22.344 C10.656 22.469 9.672 22.595 8.657 22.725 C6 23 6 23 2 23 C1.34 15.41 0.68 7.82 0 0 Z " fill="#C8C8C8" transform="translate(626,553)"/>
<path d="M0 0 C3.3 0 6.6 0 10 0 C10.906 3.624 11.129 6.346 11.133 10.043 C11.135 11.776 11.135 11.776 11.137 13.545 C11.133 14.747 11.129 15.949 11.125 17.188 C11.129 18.401 11.133 19.615 11.137 20.865 C11.135 22.017 11.134 23.169 11.133 24.355 C11.132 25.414 11.131 26.473 11.129 27.563 C11 30 11 30 10 31 C6.7 31 3.4 31 0 31 C0 20.77 0 10.54 0 0 Z " fill="#C1C1C1" transform="translate(532,558)"/>
<path d="M0 0 C3.3 0 6.6 0 10 0 C12.014 5.836 12.273 11.043 12.188 17.188 C12.187 18.076 12.186 18.965 12.186 19.881 C12.159 23.874 11.979 27.085 11 31 C7.7 31 4.4 31 1 31 C0.67 20.77 0.34 10.54 0 0 Z " fill="#C0C0C0" transform="translate(610,553)"/>
<path d="M0 0 C0.571 0.193 1.142 0.387 1.73 0.586 C18.171 5.866 36.752 7.508 53.469 2.559 C56.096 1.979 57.495 2.108 60 3 C60.495 4.98 60.495 4.98 61 7 C40.517 13.747 17.972 13.099 -2 5 C-1.34 3.35 -0.68 1.7 0 0 Z " fill="#0D0D0D" transform="translate(385,801)"/>
<path d="M0 0 C0.66 0 1.32 0 2 0 C1.244 4.236 -0.467 5.86 -3.75 8.488 C-20.514 19.751 -46.612 22.102 -66 19 C-66 18.67 -66 18.34 -66 18 C-64.546 17.536 -64.546 17.536 -63.062 17.062 C-60.159 16.305 -60.159 16.305 -59 15 C-56.898 14.862 -54.793 14.767 -52.688 14.688 C-37.719 13.875 -11.159 11.159 0 0 Z " fill="#ECECEC" transform="translate(684,851)"/>
<path d="M0 0 C6.75 0.875 6.75 0.875 9 2 C8.67 11.57 8.34 21.14 8 31 C-1 29 -1 29 -2 28 C-2.253 24.633 -2.185 21.251 -2.188 17.875 C-2.2 16.937 -2.212 15.998 -2.225 15.031 C-2.236 9.616 -1.793 5.118 0 0 Z " fill="#C8C8C8" transform="translate(362,544)"/>
<path d="M0 0 C3.3 0 6.6 0 10 0 C10 9.57 10 19.14 10 29 C7.03 29 4.06 29 1 29 C-0.079 25.762 -0.114 23.422 -0.098 20.02 C-0.094 18.856 -0.091 17.693 -0.088 16.494 C-0.08 15.279 -0.071 14.064 -0.062 12.812 C-0.058 11.586 -0.053 10.359 -0.049 9.096 C-0.037 6.064 -0.021 3.032 0 0 Z " fill="#CBCBCB" transform="translate(442,558)"/>
<path d="M0 0 C0.66 0.66 1.32 1.32 2 2 C1.01 2 0.02 2 -1 2 C-0.67 1.34 -0.34 0.68 0 0 Z M-3 2 C-0.321 3.34 1.133 4.635 3 7 C3.529 11.758 3.068 15.677 1 20 C-0.884 22 -2.731 23.393 -5 25 C-5.66 25 -6.32 25 -7 25 C-7.33 21.04 -7.66 17.08 -8 13 C-12.485 13.656 -16.669 14.701 -21 16 C-21.66 15.34 -22.32 14.68 -23 14 C-22.938 11.973 -22.938 11.973 -22 10 C-19.75 9.059 -19.75 9.059 -17 8.438 C-14.304 7.879 -14.304 7.879 -12 7 C-11.67 6.01 -11.34 5.02 -11 4 C-10.34 3.67 -9.68 3.34 -9 3 C-9 3.66 -9 4.32 -9 5 C-7.577 4.227 -7.577 4.227 -6.125 3.438 C-5.094 2.963 -4.062 2.489 -3 2 Z " fill="#0B0B0B" transform="translate(467,792)"/>
<path d="M0 0 C0.66 0 1.32 0 2 0 C2.054 2.417 2.094 4.833 2.125 7.25 C2.15 8.273 2.15 8.273 2.176 9.316 C2.241 16.064 2.241 16.064 0 19 C-2.531 20.922 -2.531 20.922 -5.5 22.75 C-6.48 23.364 -7.459 23.977 -8.469 24.609 C-11 26 -11 26 -13 26 C-13.33 20.39 -13.66 14.78 -14 9 C-10.94 7.242 -7.88 5.484 -4.82 3.727 C-1.988 2.144 -1.988 2.144 0 0 Z " fill="#F5F5F5" transform="translate(641,803)"/>
<path d="M0 0 C0.66 0 1.32 0 2 0 C2.196 0.981 2.392 1.962 2.594 2.973 C6.044 18.99 13.216 32.447 25 44 C21.177 45.423 18.087 46.24 14 46 C14 45.01 14 44.02 14 43 C12.826 41.028 11.586 39.096 10.312 37.188 C5.97 30.462 3.402 23.649 1 16 C0.67 15.01 0.34 14.02 0 13 C-0.069 10.772 -0.085 8.542 -0.062 6.312 C-0.053 5.133 -0.044 3.954 -0.035 2.738 C-0.024 1.835 -0.012 0.931 0 0 Z " fill="#111111" transform="translate(448,601)"/>
<path d="M0 0 C0.66 0 1.32 0 2 0 C2.28 0.834 2.559 1.668 2.848 2.527 C6.582 13.009 10.593 20.892 20.789 26.027 C21.519 26.348 22.248 26.669 23 27 C23.789 27.364 24.578 27.727 25.391 28.102 C29.301 29.448 33.152 29.4 37.258 29.559 C40.263 30.042 41.171 30.635 43 33 C41.115 34.885 38.016 34.218 35.5 34.25 C24.431 34.16 17.177 30.966 9 23.5 C3.807 18.168 -0.718 11.256 -1.219 3.695 C-1 1 -1 1 0 0 Z " fill="#0E0E0E" transform="translate(489,422)"/>
<path d="M0 0 C0.495 1.485 0.495 1.485 1 3 C-4.606 10.984 -12.852 15.722 -22.428 17.434 C-26.145 18.001 -29.866 18.511 -33.6 18.961 C-40.016 19.687 -40.016 19.687 -46 22 C-46.33 22.66 -46.66 23.32 -47 24 C-47.99 24 -48.98 24 -50 24 C-50 21 -50 21 -48 19 C-44.5 16.882 -40.692 16.102 -36.75 15.188 C-16.702 10.926 -16.702 10.926 0 0 Z " fill="#E9E9E9" transform="translate(492,833)"/>
<path d="M0 0 C3.3 0.99 6.6 1.98 10 3 C9.856 4.196 9.711 5.393 9.562 6.625 C8.841 13.067 8.432 19.533 8 26 C3.545 25.01 3.545 25.01 -1 24 C-1.105 15.914 -0.974 8.032 0 0 Z " fill="#C9C9C9" transform="translate(346,538)"/>
<path d="M0 0 C-0.375 0.424 -0.75 0.848 -1.137 1.285 C-12.094 13.844 -14.451 23.519 -15 40 C-15.99 40.495 -15.99 40.495 -17 41 C-17.66 41.99 -18.32 42.98 -19 44 C-21.279 31.181 -20.235 19.121 -13 7.938 C-5.808 -1.936 -5.808 -1.936 0 0 Z " fill="#131313" transform="translate(506,382)"/>
<path d="M0 0 C4.835 0.732 6.979 3.618 10.027 7.219 C16.372 16.163 17.792 25.251 17 36 C16.34 36 15.68 36 15 36 C14.67 36.66 14.34 37.32 14 38 C13.914 37.056 13.827 36.113 13.738 35.141 C12.448 23.348 10.069 13.26 1.355 4.621 C0 3 0 3 0 0 Z " fill="#0C0C0C" transform="translate(543,381)"/>
<path d="M0 0 C2.766 0.61 5.098 1.438 7.609 2.742 C8.282 3.086 8.955 3.431 9.648 3.785 C11.034 4.504 12.419 5.222 13.805 5.941 C19.938 9.078 26.136 11.927 33 13 C31.68 14.65 30.36 16.3 29 18 C18.76 15.468 8.173 11.053 1 3 C0.67 2.01 0.34 1.02 0 0 Z " fill="#141414" transform="translate(382,635)"/>
<path d="M0 0 C0.192 4.804 0.091 8.627 -2 13 C-3.884 15 -5.731 16.393 -8 18 C-8.66 18 -9.32 18 -10 18 C-10 13.05 -10 8.1 -10 3 C-3.375 -1.125 -3.375 -1.125 0 0 Z " fill="#EAEAEA" transform="translate(470,799)"/>
<path d="M0 0 C8.018 0.701 15.534 2.81 23.242 5.02 C23.242 6.34 23.242 7.66 23.242 9.02 C16.387 8.617 9.794 8.089 3.121 6.43 C0.8 5.923 -1.392 5.867 -3.758 6.02 C-2.683 0.03 -2.683 0.03 0 0 Z " fill="#0F0F0F" transform="translate(539.7578125,814.98046875)"/>
<path d="M0 0 C2 1 2 1 4 3 C3.75 5.562 3.75 5.562 3 8 C-0.16 9.58 -3.535 9.184 -7 9.188 C-7.737 9.2 -8.475 9.212 -9.234 9.225 C-11.158 9.23 -13.081 9.122 -15 9 C-15.66 8.34 -16.32 7.68 -17 7 C-16.625 4.375 -16.625 4.375 -16 2 C-14.68 1.67 -13.36 1.34 -12 1 C-12 1.99 -12 2.98 -12 4 C-10.374 3.913 -8.749 3.805 -7.125 3.688 C-5.768 3.6 -5.768 3.6 -4.383 3.512 C-1.638 3.212 -1.638 3.212 0 0 Z " fill="#070707" transform="translate(544,585)"/>
<path d="M0 0 C-1 3 -1 3 -2.762 4.059 C-3.515 4.372 -4.268 4.685 -5.043 5.008 C-5.87 5.355 -6.697 5.701 -7.549 6.059 C-8.855 6.586 -8.855 6.586 -10.188 7.125 C-11.465 7.664 -11.465 7.664 -12.768 8.215 C-17.169 10.032 -21.225 11.484 -26 12 C-26.289 11.361 -26.577 10.721 -26.875 10.062 C-27.828 7.848 -27.828 7.848 -30 7 C-28.459 6.619 -28.459 6.619 -26.887 6.23 C-25.487 5.883 -24.087 5.535 -22.688 5.188 C-21.962 5.007 -21.237 4.827 -20.49 4.642 C-15.345 3.356 -10.233 1.983 -5.137 0.516 C-3 0 -3 0 0 0 Z " fill="#121212" transform="translate(564,650)"/>
<path d="M0 0 C0.66 0.33 1.32 0.66 2 1 C0.02 1.99 0.02 1.99 -2 3 C-1.67 4.32 -1.34 5.64 -1 7 C-3.957 8.005 -6.916 9.003 -9.875 10 C-10.717 10.286 -11.559 10.572 -12.426 10.867 C-13.231 11.138 -14.037 11.409 -14.867 11.688 C-15.983 12.065 -15.983 12.065 -17.121 12.449 C-19 13 -19 13 -21 13 C-21 11.68 -21 10.36 -21 9 C-22.32 8.67 -23.64 8.34 -25 8 C-24.456 7.864 -23.912 7.728 -23.351 7.589 C-20.857 6.962 -18.366 6.325 -15.875 5.688 C-15.019 5.474 -14.163 5.261 -13.281 5.041 C-8.494 3.807 -4.427 2.241 0 0 Z " fill="#131313" transform="translate(676,850)"/>
<path d="M0 0 C0.33 0 0.66 0 1 0 C1 5.28 1 10.56 1 16 C0.01 16 -0.98 16 -2 16 C-2.66 16.99 -3.32 17.98 -4 19 C-4 18.01 -4 17.02 -4 16 C-4.908 15.876 -5.815 15.753 -6.75 15.625 C-9.59 15.079 -11.526 14.427 -14 13 C-14 15.64 -14 18.28 -14 21 C-14.33 21 -14.66 21 -15 21 C-15.027 19.542 -15.046 18.083 -15.062 16.625 C-15.074 15.813 -15.086 15.001 -15.098 14.164 C-15 12 -15 12 -14 10 C-10.387 8.555 -7.933 8 -4 8 C-3.67 8.66 -3.34 9.32 -3 10 C-2.34 9.67 -1.68 9.34 -1 9 C-0.533 6.874 -0.533 6.874 -0.375 4.438 C-0.3 3.611 -0.225 2.785 -0.148 1.934 C-0.099 1.296 -0.05 0.657 0 0 Z " fill="#1D1D1D" transform="translate(359,555)"/>
<path d="M0 0 C0.66 1.32 1.32 2.64 2 4 C-4.88 6.621 -11.722 6.182 -19 6 C-19.33 5.01 -19.66 4.02 -20 3 C-19.34 3 -18.68 3 -18 3 C-18 2.34 -18 1.68 -18 1 C-11.964 0.307 -6.076 -0.113 0 0 Z " fill="#050505" transform="translate(536,658)"/>
<path d="M0 0 C0.33 0.99 0.66 1.98 1 3 C-0.109 4.867 -0.109 4.867 -1.75 6.875 C-2.307 7.584 -2.864 8.293 -3.438 9.023 C-3.953 9.676 -4.469 10.328 -5 11 C-7.932 15.188 -8.911 19.059 -10 24 C-11.65 22.68 -13.3 21.36 -15 20 C-12.82 11.278 -6.895 5.385 0 0 Z " fill="#171717" transform="translate(462,522)"/>
<path d="M0 0 C1.65 0.33 3.3 0.66 5 1 C4.588 5.971 4.204 10.445 2 15 C0.35 14.67 -1.3 14.34 -3 14 C-4.07 11.236 -4.163 9.461 -3.176 6.664 C-2.165 4.415 -1.116 2.198 0 0 Z " fill="#161616" transform="translate(442,456)"/>
<path d="M0 0 C2 2 2 2 2.227 3.879 C2.217 4.623 2.206 5.367 2.195 6.133 C2.189 6.938 2.182 7.744 2.176 8.574 C2.159 9.416 2.142 10.258 2.125 11.125 C2.116 11.974 2.107 12.824 2.098 13.699 C2.074 15.8 2.038 17.9 2 20 C1.34 20.33 0.68 20.66 0 21 C-0.66 21.99 -1.32 22.98 -2 24 C-3.326 16.54 -4.046 8.38 -2 1 C-1.34 0.67 -0.68 0.34 0 0 Z " fill="#1F1F1F" transform="translate(489,402)"/>
<path d="M0 0 C0.33 0 0.66 0 1 0 C1.517 10.976 -0.367 20.071 -5 30 C-5.66 29.34 -6.32 28.68 -7 28 C-7.66 28 -8.32 28 -9 28 C-7.586 23.653 -6.027 19.386 -4.375 15.125 C-3.929 13.973 -3.483 12.82 -3.023 11.633 C-2.686 10.764 -2.348 9.895 -2 9 C-1.34 9 -0.68 9 0 9 C0 6.03 0 3.06 0 0 Z " fill="#191919" transform="translate(560,408)"/>
<path d="M0 0 C0.66 0 1.32 0 2 0 C2.326 0.88 2.652 1.761 2.988 2.668 C3.425 3.829 3.862 4.991 4.312 6.188 C4.742 7.336 5.171 8.485 5.613 9.668 C6.858 12.659 8.253 15.28 10 18 C8.02 18.99 8.02 18.99 6 20 C1.648 13.625 -0.876 8.796 -1 1 C-0.67 0.67 -0.34 0.34 0 0 Z " fill="#151515" transform="translate(489,422)"/>
<path d="M0 0 C3 1 3 1 3.922 2.68 C4.195 3.404 4.468 4.129 4.75 4.875 C7.148 10.691 10.525 15.777 14 21 C11 21 11 21 8.879 19.059 C0.2 9.238 0.2 9.238 -2 4 C-1.25 1.562 -1.25 1.562 0 0 Z " fill="#EAEAEA" transform="translate(474,433)"/>
<path d="M0 0 C0.66 0 1.32 0 2 0 C2.266 1.085 2.531 2.171 2.805 3.289 C3.161 4.734 3.518 6.18 3.875 7.625 C4.049 8.338 4.223 9.051 4.402 9.785 C5.429 13.928 6.588 17.967 8 22 C6.35 22.33 4.7 22.66 3 23 C0.056 15.237 -0.349 8.256 0 0 Z " fill="#181818" transform="translate(448,601)"/>
<path d="M0 0 C1.65 0.33 3.3 0.66 5 1 C4.469 5.515 2.634 8.347 0 12 C-1.65 11.67 -3.3 11.34 -5 11 C-4.547 6.126 -3.291 3.61 0 0 Z " fill="#0C0C0C" transform="translate(452,438)"/>
<path d="M0 0 C2.938 0.125 2.938 0.125 6 1 C7.5 3.188 7.5 3.188 8 6 C7.125 9.312 7.125 9.312 6 12 C5.01 12 4.02 12 3 12 C0.608 9.062 -0.89 6.992 -1.312 3.188 C-1 1 -1 1 0 0 Z " fill="#0E0E0E" transform="translate(424,482)"/>
<path d="M0 0 C0.66 0 1.32 0 2 0 C1.01 5.28 0.02 10.56 -1 16 C-1.99 16 -2.98 16 -4 16 C-4.66 16.66 -5.32 17.32 -6 18 C-5.913 15.895 -5.805 13.791 -5.688 11.688 C-5.629 10.516 -5.571 9.344 -5.512 8.137 C-5 5 -5 5 -3.582 3.082 C-2 2 -2 2 0 2 C0 1.34 0 0.68 0 0 Z " fill="#1C1C1C" transform="translate(460,781)"/>
<path d="M0 0 C-0.33 0.66 -0.66 1.32 -1 2 C-0.01 2.66 0.98 3.32 2 4 C-5.425 5.485 -5.425 5.485 -13 7 C-12.67 5.02 -12.34 3.04 -12 1 C-3.964 -1.277 -3.964 -1.277 0 0 Z " fill="#121212" transform="translate(462,843)"/>
<path d="M0 0 C0.33 0.99 0.66 1.98 1 3 C-2.103 7.419 -5.276 10.27 -10 13 C-10.66 13 -11.32 13 -12 13 C-13.625 11 -13.625 11 -15 9 C-14.169 8.602 -13.337 8.203 -12.48 7.793 C-11.394 7.263 -10.307 6.733 -9.188 6.188 C-8.109 5.665 -7.03 5.143 -5.918 4.605 C-3.434 3.239 -1.82 2.127 0 0 Z " fill="#E4E4E4" transform="translate(492,833)"/>
<path d="M0 0 C0.66 0 1.32 0 2 0 C2 0.66 2 1.32 2 2 C2.99 2.33 3.98 2.66 5 3 C5.688 5.062 5.688 5.062 6 7 C4.68 7.33 3.36 7.66 2 8 C2.33 9.32 2.66 10.64 3 12 C1.68 12.33 0.36 12.66 -1 13 C-1.33 9.37 -1.66 5.74 -2 2 C-1.34 2 -0.68 2 0 2 C0 1.34 0 0.68 0 0 Z " fill="#050505" transform="translate(634,625)"/>
<path d="M0 0 C3 1 3 1 4 3 C4.071 5.207 4.084 7.417 4.062 9.625 C4.053 10.814 4.044 12.002 4.035 13.227 C4.024 14.142 4.012 15.057 4 16 C3.34 16 2.68 16 2 16 C1.67 16.66 1.34 17.32 1 18 C0.23 11.933 -0.097 6.115 0 0 Z " fill="#070707" transform="translate(556,401)"/>
<path d="M0 0 C4.852 2.052 7.287 5.607 10 10 C10.875 13 10.875 13 11 15 C8.707 14.871 8.707 14.871 6 14 C4.199 11.348 4.199 11.348 2.688 8.062 C2.176 6.981 1.664 5.899 1.137 4.785 C0 2 0 2 0 0 Z " fill="#1E1E1E" transform="translate(437,523)"/>
<path d="M0 0 C2 2 2 2 2.188 4.375 C0.456 8.203 -2.282 8.807 -6.066 10.301 C-6.704 10.532 -7.343 10.762 -8 11 C-9 9 -9 9 -8.816 7.047 C-7.738 4.343 -6.438 3.679 -3.938 2.25 C-3.204 1.822 -2.471 1.394 -1.715 0.953 C-1.149 0.639 -0.583 0.324 0 0 Z " fill="#141414" transform="translate(487,831)"/>
<path d="M0 0 C0.99 0.33 1.98 0.66 3 1 C5.143 0.611 5.143 0.611 7 0 C6.67 1.98 6.34 3.96 6 6 C6.66 6 7.32 6 8 6 C8 6.66 8 7.32 8 8 C4.625 8.125 4.625 8.125 1 8 C0.34 7.34 -0.32 6.68 -1 6 C-1.99 5.34 -2.98 4.68 -4 4 C-3.34 4 -2.68 4 -2 4 C-1.34 2.68 -0.68 1.36 0 0 Z " fill="#D0D0D0" transform="translate(636,566)"/>
<path d="M0 0 C3.438 0.812 3.438 0.812 7 2 C8 5 8 5 7 8 C4.03 7.01 1.06 6.02 -2 5 C-1.34 3.35 -0.68 1.7 0 0 Z " fill="#141414" transform="translate(385,801)"/>
<path d="M0 0 C4 2 4 2 5.438 4.375 C6 7 6 7 4.812 9.312 C3 11 3 11 0 11 C0 7.37 0 3.74 0 0 Z " fill="#EDEDED" transform="translate(527,419)"/>
<path d="M0 0 C0.66 0.99 1.32 1.98 2 3 C1.01 3.33 0.02 3.66 -1 4 C-1.733 6.015 -1.733 6.015 -2 8 C-2.66 8 -3.32 8 -4 8 C-5.108 9.883 -5.108 9.883 -6 12 C-5.67 12.66 -5.34 13.32 -5 14 C-7.363 16.526 -8.665 17.888 -12 19 C-10.427 14.272 -7.794 10.657 -4.875 6.688 C-4.173 5.72 -4.173 5.72 -3.457 4.732 C-2.309 3.152 -1.155 1.575 0 0 Z " fill="#EAEAEA" transform="translate(340,301)"/>
<path d="M0 0 C-0.375 1.938 -0.375 1.938 -1 4 C-3.957 5.478 -6.742 5.06 -10 5 C-10.33 3.68 -10.66 2.36 -11 1 C-7.266 0.121 -3.832 -0.089 0 0 Z " fill="#F4F4F4" transform="translate(470,846)"/>
<path d="M0 0 C-0.312 1.938 -0.312 1.938 -1 4 C-4.473 5.158 -7.361 5.069 -11 5 C-11.33 4.01 -11.66 3.02 -12 2 C-7.879 0.002 -4.548 -0.178 0 0 Z " fill="#060606" transform="translate(471,841)"/>
<path d="M0 0 C3.977 3.856 3.977 3.856 4.043 7.113 C3.78 9.089 3.397 11.047 3 13 C0.525 12.01 0.525 12.01 -2 11 C-1.34 7.37 -0.68 3.74 0 0 Z " fill="#1C1C1C" transform="translate(466,739)"/>
<path d="M0 0 C1.32 0.99 2.64 1.98 4 3 C-0.62 3.33 -5.24 3.66 -10 4 C-10 2.68 -10 1.36 -10 0 C-6.403 -1.245 -3.667 -0.917 0 0 Z " fill="#BBBBBB" transform="translate(638,572)"/>
<path d="M0 0 C0.33 0 0.66 0 1 0 C1.054 1.896 1.093 3.791 1.125 5.688 C1.148 6.743 1.171 7.799 1.195 8.887 C0.997 12.056 0.464 14.194 -1 17 C-3.125 17.812 -3.125 17.812 -5 18 C-5 16.02 -5 14.04 -5 12 C-3.35 11.67 -1.7 11.34 0 11 C0 7.37 0 3.74 0 0 Z " fill="#E5E5E5" transform="translate(622,816)"/>
<path d="M0 0 C3.465 1.98 3.465 1.98 7 4 C6.01 4.495 6.01 4.495 5 5 C3.866 7.017 3.866 7.017 3 9 C1.68 8.34 0.36 7.68 -1 7 C-0.67 4.69 -0.34 2.38 0 0 Z " fill="#090909" transform="translate(357,569)"/>
<path d="M0 0 C0 0.99 0 1.98 0 3 C-3.63 3 -7.26 3 -11 3 C-11 2.01 -11 1.02 -11 0 C-7.018 -1.054 -4.018 -0.841 0 0 Z " fill="#080808" transform="translate(531,453)"/>
<path d="M0 0 C0 3.3 0 6.6 0 10 C-1.32 9.67 -2.64 9.34 -4 9 C-4.75 6.75 -4.75 6.75 -5 4 C-1.757 0 -1.757 0 0 0 Z " fill="#EEEEEE" transform="translate(521,398)"/>
<path d="M0 0 C0.66 0.33 1.32 0.66 2 1 C2 2.32 2 3.64 2 5 C1.34 5 0.68 5 0 5 C-0.34 5.866 -0.34 5.866 -0.688 6.75 C-2.33 9.566 -4.395 11.081 -7 13 C-7.66 12.67 -8.32 12.34 -9 12 C-6.03 8.04 -3.06 4.08 0 0 Z " fill="#161616" transform="translate(491,192)"/>
<path d="M0 0 C0.99 0 1.98 0 3 0 C4.102 4.409 4.077 8.484 4 13 C3.546 12.361 3.092 11.721 2.625 11.062 C1.161 8.903 1.161 8.903 -1 8 C-0.67 5.36 -0.34 2.72 0 0 Z " fill="#DADADA" transform="translate(626,583)"/>
<path d="M0 0 C1.32 0 2.64 0 4 0 C5.765 3.088 6 4.233 6 8 C-0.702 6.064 -0.702 6.064 -3 3 C-3 2.34 -3 1.68 -3 1 C-1.68 1.33 -0.36 1.66 1 2 C0.67 1.34 0.34 0.68 0 0 Z " fill="#F2F2F2" transform="translate(618,154)"/>
<path d="M0 0 C1.65 0 3.3 0 5 0 C5 0.99 5 1.98 5 3 C4.34 3 3.68 3 3 3 C2.67 5.31 2.34 7.62 2 10 C-1.247 8.376 -1.702 5.246 -3 2 C-2.01 2 -1.02 2 0 2 C0 1.34 0 0.68 0 0 Z " fill="#191919" transform="translate(488,448)"/>
<path d="M0 0 C0.33 0 0.66 0 1 0 C1.027 1.896 1.046 3.792 1.062 5.688 C1.074 6.743 1.086 7.799 1.098 8.887 C1.009 11.724 0.649 14.244 0 17 C-1.32 16.67 -2.64 16.34 -4 16 C-3.125 11.25 -3.125 11.25 -2 9 C-1.34 9 -0.68 9 0 9 C0 6.03 0 3.06 0 0 Z " fill="#262626" transform="translate(560,408)"/>
<path d="M0 0 C-0.688 1.938 -0.688 1.938 -2 4 C-4.625 4.75 -4.625 4.75 -7 5 C-7 3.68 -7 2.36 -7 1 C-8.32 0.67 -9.64 0.34 -11 0 C-7.018 -1.054 -4.018 -0.841 0 0 Z " fill="#1E1E1E" transform="translate(662,858)"/>
<path d="M0 0 C0 2.84 -0.403 5.237 -1 8 C-1.66 8 -2.32 8 -3 8 C-3.33 8.66 -3.66 9.32 -4 10 C-5.65 9.67 -7.3 9.34 -9 9 C-6 6 -3 3 0 0 Z " fill="#EDEDED" transform="translate(560,454)"/>
<path d="M0 0 C1.98 0.99 3.96 1.98 6 3 C4 5 4 5 1 7 C0.67 7.66 0.34 8.32 0 9 C-2.475 8.01 -2.475 8.01 -5 7 C-4.361 6.587 -3.721 6.175 -3.062 5.75 C-0.79 3.822 -0.398 2.886 0 0 Z " fill="#141414" transform="translate(548,365)"/>
<path d="M0 0 C0.66 0.33 1.32 0.66 2 1 C0.877 2.46 -0.249 3.918 -1.375 5.375 C-2.001 6.187 -2.628 6.999 -3.273 7.836 C-5 10 -5 10 -7 12 C-7.99 12 -8.98 12 -10 12 C-8.439 8.168 -5.971 5.826 -3 3 C-2.402 2.402 -1.804 1.804 -1.188 1.188 C-0.796 0.796 -0.404 0.404 0 0 Z " fill="#DFDFDF" transform="translate(488,373)"/>
<path d="M0 0 C-1 3 -1 3 -2.848 3.949 C-3.579 4.193 -4.309 4.436 -5.062 4.688 C-6.163 5.065 -6.163 5.065 -7.285 5.449 C-7.851 5.631 -8.417 5.813 -9 6 C-9.66 4.68 -10.32 3.36 -11 2 C-3.375 0 -3.375 0 0 0 Z " fill="#2F2F2F" transform="translate(564,650)"/>
<path d="M0 0 C0.66 0.33 1.32 0.66 2 1 C1.34 3.31 0.68 5.62 0 8 C-1.32 8 -2.64 8 -4 8 C-4 4 -4 4 -3 1 C-2.01 0.67 -1.02 0.34 0 0 Z " fill="#111111" transform="translate(526,437)"/>
<path d="M0 0 C0.99 0 1.98 0 3 0 C2.67 2.97 2.34 5.94 2 9 C-0.062 7.25 -0.062 7.25 -2 5 C-1.81 2.782 -1.585 1.585 0 0 Z " fill="#E0E0E0" transform="translate(433,481)"/>
<path d="M0 0 C-0.398 2.886 -0.79 3.822 -3.062 5.75 C-3.702 6.163 -4.341 6.575 -5 7 C-6.32 6.01 -7.64 5.02 -9 4 C-2.25 0 -2.25 0 0 0 Z " fill="#D9D9D9" transform="translate(686,851)"/>
<path d="M0 0 C-0.66 0 -1.32 0 -2 0 C-2.33 1.65 -2.66 3.3 -3 5 C-4.65 5.33 -6.3 5.66 -8 6 C-7.34 4.35 -6.68 2.7 -6 1 C-6.99 0.67 -7.98 0.34 -9 0 C-5.622 -0.845 -3.325 -1.108 0 0 Z " fill="#232323" transform="translate(598,817)"/>
<path d="M0 0 C1.32 1.65 2.64 3.3 4 5 C1.646 6.429 0.52 7.087 -2.25 6.625 C-2.827 6.419 -3.405 6.212 -4 6 C-2.68 4.02 -1.36 2.04 0 0 Z " fill="#EEEEEE" transform="translate(460,641)"/>
<path d="M0 0 C3.3 0 6.6 0 10 0 C9.34 1.65 8.68 3.3 8 5 C7.34 5 6.68 5 6 5 C5.67 5.66 5.34 6.32 5 7 C5.33 5.02 5.66 3.04 6 1 C4.35 1 2.7 1 1 1 C0.67 2.32 0.34 3.64 0 5 C0 3.35 0 1.7 0 0 Z " fill="#B0B0B0" transform="translate(610,553)"/>
<path d="M0 0 C1.746 2.619 2.387 4.038 3 7 C2.01 6.67 1.02 6.34 0 6 C-0.33 6.99 -0.66 7.98 -1 9 C-2.257 6.094 -3 4.204 -3 1 C-2.01 0.67 -1.02 0.34 0 0 Z " fill="#171717" transform="translate(556,395)"/>
<path d="M0 0 C0.66 0 1.32 0 2 0 C2.688 1.812 2.688 1.812 3 4 C1.75 5.75 1.75 5.75 0 7 C-0.99 7 -1.98 7 -3 7 C-3.33 6.01 -3.66 5.02 -4 4 C-2.68 3.34 -1.36 2.68 0 2 C0 1.34 0 0.68 0 0 Z " fill="#FBFBFB" transform="translate(502,373)"/>
<path d="M0 0 C3.335 1.38 5.186 2.85 7 6 C6.67 6.99 6.34 7.98 6 9 C5.67 8.34 5.34 7.68 5 7 C4.34 7 3.68 7 3 7 C0 2.615 0 2.615 0 0 Z " fill="#181818" transform="translate(437,523)"/>
<path d="M0 0 C0.66 0.33 1.32 0.66 2 1 C-0.97 4.96 -0.97 4.96 -4 9 C-4.66 8.67 -5.32 8.34 -6 8 C-5.67 6.02 -5.34 4.04 -5 2 C-4.361 1.856 -3.721 1.711 -3.062 1.562 C-1.025 1.19 -1.025 1.19 0 0 Z " fill="#E5E5E5" transform="translate(722,439)"/>
<path d="M0 0 C0 0.99 0 1.98 0 3 C-0.474 3.454 -0.949 3.908 -1.438 4.375 C-3.446 6.464 -3.619 8.178 -4 11 C-4.99 11 -5.98 11 -7 11 C-7.33 10.01 -7.66 9.02 -8 8 C-5.36 5.36 -2.72 2.72 0 0 Z " fill="#D7D7D7" transform="translate(363,274)"/>
<path d="M0 0 C3.459 1.249 6.147 2.675 9 5 C6.812 5.812 6.812 5.812 4 6 C1.188 3.562 1.188 3.562 -1 1 C-0.67 0.67 -0.34 0.34 0 0 Z " fill="#ECECEC" transform="translate(633,249)"/>
<path d="M0 0 C2.475 0.99 2.475 0.99 5 2 C-0.528 6.761 -0.528 6.761 -4 7 C-4.66 6.34 -5.32 5.68 -6 5 C-5.196 4.732 -4.391 4.464 -3.562 4.188 C-2.717 3.796 -1.871 3.404 -1 3 C-0.67 2.01 -0.34 1.02 0 0 Z " fill="#EEEEEE" transform="translate(571,184)"/>
<path d="M0 0 C-0.33 0.66 -0.66 1.32 -1 2 C-0.01 2.66 0.98 3.32 2 4 C-0.64 4.33 -3.28 4.66 -6 5 C-6 3.35 -6 1.7 -6 0 C-3.509 -1.245 -2.589 -0.777 0 0 Z " fill="#202020" transform="translate(462,843)"/>
<path d="M0 0 C-0.33 0.99 -0.66 1.98 -1 3 C-3.062 3.688 -3.062 3.688 -5 4 C-5.33 3.01 -5.66 2.02 -6 1 C-6.66 0.67 -7.32 0.34 -8 0 C-4.71 -1.097 -3.287 -0.8 0 0 Z " fill="#1B1B1B" transform="translate(555,654)"/>
<path d="M0 0 C1.32 0.66 2.64 1.32 4 2 C4 3.32 4 4.64 4 6 C2.02 6.66 0.04 7.32 -2 8 C-1.34 5.36 -0.68 2.72 0 0 Z " fill="#E4E4E4" transform="translate(346,466)"/>
<path d="M0 0 C2.886 0.398 3.822 0.79 5.75 3.062 C6.163 3.702 6.575 4.341 7 5 C6.67 5.66 6.34 6.32 6 7 C3.421 5.968 2.212 5.35 0.75 2.938 C0 1 0 1 0 0 Z " fill="#050505" transform="translate(543,381)"/>
<path d="M0 0 C0.99 0.33 1.98 0.66 3 1 C1.35 2.65 -0.3 4.3 -2 6 C-2.99 5.01 -3.98 4.02 -5 3 C-2.688 1.438 -2.688 1.438 0 0 Z " fill="#0D0D0D" transform="translate(503,381)"/>
<path d="M0 0 C1.226 0.014 1.226 0.014 2.477 0.027 C3.416 0.045 3.416 0.045 4.375 0.062 C4.375 0.392 4.375 0.723 4.375 1.062 C2.725 1.062 1.075 1.062 -0.625 1.062 C-0.625 2.053 -0.625 3.043 -0.625 4.062 C-3.595 3.567 -3.595 3.567 -6.625 3.062 C-6.625 2.402 -6.625 1.743 -6.625 1.062 C-4.22 -0.14 -2.675 -0.038 0 0 Z " fill="#0E0E0E" transform="translate(520.625,451.9375)"/>
<path d="M0 0 C2.97 1.98 2.97 1.98 6 4 C4.625 5.5 4.625 5.5 3 7 C2.34 7 1.68 7 1 7 C-0.062 4.625 -0.062 4.625 -1 2 C-0.67 1.34 -0.34 0.68 0 0 Z " fill="#E8E8E8" transform="translate(315,351)"/>
<path d="M0 0 C1.125 3.75 1.125 3.75 0 6 C-0.99 6 -1.98 6 -3 6 C-3.33 6.99 -3.66 7.98 -4 9 C-4.66 9 -5.32 9 -6 9 C-6 8.34 -6 7.68 -6 7 C-6.99 6.67 -7.98 6.34 -9 6 C-8.072 5.752 -7.144 5.505 -6.188 5.25 C-2.835 3.935 -1.812 3.02 0 0 Z " fill="#DDDDDD" transform="translate(631,180)"/>
<path d="M0 0 C3.63 0 7.26 0 11 0 C9.68 1.32 8.36 2.64 7 4 C6.01 3.67 5.02 3.34 4 3 C4 2.34 4 1.68 4 1 C2.68 0.67 1.36 0.34 0 0 Z " fill="#E0E0E0" transform="translate(597,866)"/>
<path d="M0 0 C1.32 1.32 2.64 2.64 4 4 C1.428 5.619 0.323 6.044 -2.75 5.625 C-3.493 5.419 -4.235 5.212 -5 5 C-3.35 3.35 -1.7 1.7 0 0 Z " fill="#1B1B1B" transform="translate(506,377)"/>
<path d="M0 0 C0.66 0 1.32 0 2 0 C2.33 2.31 2.66 4.62 3 7 C2.34 7 1.68 7 1 7 C1 8.98 1 10.96 1 13 C0.67 13 0.34 13 0 13 C0 8.71 0 4.42 0 0 Z " fill="#2A2A2A" transform="translate(448,601)"/>
<path d="M0 0 C0.33 0.66 0.66 1.32 1 2 C1.66 2.33 2.32 2.66 3 3 C0.646 4.429 -0.48 5.087 -3.25 4.625 C-3.827 4.419 -4.405 4.212 -5 4 C-5 3.01 -5 2.02 -5 1 C-3.35 0.67 -1.7 0.34 0 0 Z " fill="#CECECE" transform="translate(392,569)"/>
<path d="M0 0 C1.709 1.623 3.374 3.293 5 5 C5 5.66 5 6.32 5 7 C3.35 7 1.7 7 0 7 C-0.934 3.99 -1.044 3.133 0 0 Z " fill="#1B1B1B" transform="translate(420,500)"/>
<path d="M0 0 C4.392 1.464 4.879 3.978 7 8 C3.205 6.509 1.39 4.243 -1 1 C-0.67 0.67 -0.34 0.34 0 0 Z " fill="#D3D3D3" transform="translate(481,447)"/>
<path d="M0 0 C0.66 0 1.32 0 2 0 C2.33 0.99 2.66 1.98 3 3 C2.34 3 1.68 3 1 3 C1 3.66 1 4.32 1 5 C0.34 5 -0.32 5 -1 5 C-1.66 6.32 -2.32 7.64 -3 9 C-3 4.734 -2.432 3.367 0 0 Z " fill="#141414" transform="translate(473,440)"/>
<path d="M0 0 C0.66 0 1.32 0 2 0 C2.33 1.65 2.66 3.3 3 5 C1.02 5.99 1.02 5.99 -1 7 C-1.043 5 -1.041 3 -1 1 C-0.67 0.67 -0.34 0.34 0 0 Z " fill="#0D0D0D" transform="translate(489,422)"/>
<path d="M0 0 C0.33 0.99 0.66 1.98 1 3 C4.512 4.23 4.512 4.23 8 5 C7.67 5.66 7.34 6.32 7 7 C6.67 6.67 6.34 6.34 6 6 C2.368 5.809 2.368 5.809 -1 7 C-1.33 5.68 -1.66 4.36 -2 3 C-1.34 3 -0.68 3 0 3 C0 2.01 0 1.02 0 0 Z " fill="#DADADA" transform="translate(378,289)"/>
<path d="M0 0 C0.33 0 0.66 0 1 0 C1.125 3.375 1.125 3.375 1 7 C0.34 7.66 -0.32 8.32 -1 9 C-1.99 9 -2.98 9 -4 9 C-2.801 5.917 -1.523 2.937 0 0 Z " fill="#E8E8E8" transform="translate(659,612)"/>
<path d="M0 0 C1.98 0 3.96 0 6 0 C5.505 0.454 5.01 0.908 4.5 1.375 C2.774 2.876 2.774 2.876 3 5 C0.69 4.67 -1.62 4.34 -4 4 C-2.68 3.34 -1.36 2.68 0 2 C0 1.34 0 0.68 0 0 Z " fill="#BABABA" transform="translate(385,569)"/>
<path d="M0 0 C5.75 3.625 5.75 3.625 8 7 C6.02 7.99 6.02 7.99 4 9 C3.897 8.216 3.794 7.433 3.688 6.625 C3.224 3.67 3.224 3.67 0 2 C0 1.34 0 0.68 0 0 Z " fill="#EEEEEE" transform="translate(469,450)"/>
<path d="M0 0 C2.31 0 4.62 0 7 0 C6.67 0.66 6.34 1.32 6 2 C5.34 2 4.68 2 4 2 C3.67 2.99 3.34 3.98 3 5 C2.34 5 1.68 5 1 5 C0.67 3.35 0.34 1.7 0 0 Z " fill="#181818" transform="translate(451,852)"/>
<path d="M0 0 C1.32 0.33 2.64 0.66 4 1 C3.67 2.98 3.34 4.96 3 7 C2.01 6.67 1.02 6.34 0 6 C0 4.02 0 2.04 0 0 Z " fill="#DEDEDE" transform="translate(544,851)"/>
<path d="M0 0 C3.146 -0.262 4.618 -0.248 7.312 1.5 C8.148 2.242 8.148 2.242 9 3 C7.02 3.66 5.04 4.32 3 5 C2.34 4.34 1.68 3.68 1 3 C1.99 3 2.98 3 4 3 C4 2.34 4 1.68 4 1 C2.68 0.67 1.36 0.34 0 0 Z " fill="#1A1A1A" transform="translate(467,840)"/>
<path d="M0 0 C1.32 0 2.64 0 4 0 C3.67 1.32 3.34 2.64 3 4 C1.68 4.33 0.36 4.66 -1 5 C-1 2 -1 2 0 0 Z " fill="#060606" transform="translate(596,817)"/>
<path d="M0 0 C0.66 0 1.32 0 2 0 C2.33 2.97 2.66 5.94 3 9 C0 6 0 6 -0.188 2.812 C-0.126 1.884 -0.064 0.956 0 0 Z " fill="#070707" transform="translate(449,608)"/>
<path d="M0 0 C1.32 0 2.64 0 4 0 C4 0.66 4 1.32 4 2 C4.66 2 5.32 2 6 2 C6 2.66 6 3.32 6 4 C3.69 3.67 1.38 3.34 -1 3 C-0.67 2.01 -0.34 1.02 0 0 Z " fill="#BBBBBB" transform="translate(392,572)"/>
<path d="M0 0 C3.3 0 6.6 0 10 0 C9.34 1.65 8.68 3.3 8 5 C7.34 4.01 6.68 3.02 6 2 C3.941 1.276 3.941 1.276 2 1 C1.67 1.66 1.34 2.32 1 3 C0.67 2.01 0.34 1.02 0 0 Z " fill="#C2C2C2" transform="translate(532,558)"/>
<path d="M0 0 C0.66 0.33 1.32 0.66 2 1 C2 3.31 2 5.62 2 8 C1.01 7.34 0.02 6.68 -1 6 C-1.66 6 -2.32 6 -3 6 C-3 5.34 -3 4.68 -3 4 C-2.34 4 -1.68 4 -1 4 C-0.67 2.68 -0.34 1.36 0 0 Z " fill="#CBCBCB" transform="translate(619,554)"/>
<path d="M0 0 C2.31 1.98 4.62 3.96 7 6 C6.34 6.66 5.68 7.32 5 8 C2.5 6.25 2.5 6.25 0 4 C0 2.68 0 1.36 0 0 Z " fill="#0F0F0F" transform="translate(300,431)"/>
<path d="M0 0 C0.66 0.33 1.32 0.66 2 1 C1.288 1.65 1.288 1.65 0.562 2.312 C-1.237 4.023 -1.237 4.023 -2 7 C-4.062 7.688 -4.062 7.688 -6 8 C-4.731 4.086 -3.488 2.209 0 0 Z " fill="#1B1B1B" transform="translate(515,392)"/>
<path d="M0 0 C2.475 0.99 2.475 0.99 5 2 C4.34 3.32 3.68 4.64 3 6 C1.68 5.34 0.36 4.68 -1 4 C-0.67 2.68 -0.34 1.36 0 0 Z " fill="#191919" transform="translate(540,378)"/>
<path d="M0 0 C0.99 0.99 1.98 1.98 3 3 C2.34 4.65 1.68 6.3 1 8 C-0.746 5.381 -1.387 3.962 -2 1 C-1.34 0.67 -0.68 0.34 0 0 Z " fill="#F2F2F2" transform="translate(612,344)"/>
<path d="M0 0 C2.97 0.495 2.97 0.495 6 1 C6 3.31 6 5.62 6 8 C5.34 8 4.68 8 4 8 C3.711 7.237 3.423 6.474 3.125 5.688 C2.037 2.85 2.037 2.85 0 0 Z " fill="#DBDBDB" transform="translate(601,193)"/>
<path d="M0 0 C0.99 0.33 1.98 0.66 3 1 C2.67 2.32 2.34 3.64 2 5 C-0.97 4.505 -0.97 4.505 -4 4 C-2.68 2.68 -1.36 1.36 0 0 Z " fill="#E5E5E5" transform="translate(609,82)"/>
<path d="M0 0 C-1.77 2.142 -2.876 2.961 -5.562 3.812 C-6.769 3.905 -6.769 3.905 -8 4 C-8.66 3.34 -9.32 2.68 -10 2 C-8.712 1.47 -7.42 0.951 -6.125 0.438 C-5.406 0.147 -4.686 -0.143 -3.945 -0.441 C-2 -1 -2 -1 0 0 Z " fill="#DADADA" transform="translate(627,843)"/>
<path d="M0 0 C0.66 0.66 1.32 1.32 2 2 C1.625 5.625 1.625 5.625 1 9 C0.01 8.34 -0.98 7.68 -2 7 C-1.125 2.25 -1.125 2.25 0 0 Z " fill="#020202" transform="translate(469,735)"/>
<path d="M0 0 C0.743 0.082 1.485 0.165 2.25 0.25 C0.93 1.9 -0.39 3.55 -1.75 5.25 C-3.4 4.92 -5.05 4.59 -6.75 4.25 C-3.427 0.312 -3.427 0.312 0 0 Z " fill="#1C1C1C" transform="translate(412.75,647.75)"/>
<path d="M0 0 C1.207 0.031 1.207 0.031 2.438 0.062 C2.438 1.383 2.438 2.702 2.438 4.062 C0.788 4.062 -0.863 4.062 -2.562 4.062 C-2.892 3.072 -3.223 2.082 -3.562 1.062 C-2.562 0.062 -2.562 0.062 0 0 Z " fill="#080808" transform="translate(407.5625,646.9375)"/>
<path d="M0 0 C3 1 3 1 3 1 Z M-4 1 C-2.68 1.33 -1.36 1.66 0 2 C-0.99 3.485 -0.99 3.485 -2 5 C-3.32 5 -4.64 5 -6 5 C-5.34 3.68 -4.68 2.36 -4 1 Z " fill="#BFBFBF" transform="translate(650,569)"/>
<path d="M0 0 C1.65 0 3.3 0 5 0 C4.67 0.99 4.34 1.98 4 3 C3.01 3 2.02 3 1 3 C1 4.98 1 6.96 1 9 C0.67 9 0.34 9 0 9 C0 6.03 0 3.06 0 0 Z " fill="#D4D4D4" transform="translate(459,559)"/>
<path d="M0 0 C0.66 0.33 1.32 0.66 2 1 C1.67 1.66 1.34 2.32 1 3 C1.99 3.33 2.98 3.66 4 4 C3.67 4.99 3.34 5.98 3 7 C0.525 6.01 0.525 6.01 -2 5 C-1.34 3.35 -0.68 1.7 0 0 Z " fill="#121212" transform="translate(666,456)"/>
<path d="M0 0 C1.65 1.65 3.3 3.3 5 5 C4.67 5.66 4.34 6.32 4 7 C1.525 6.01 1.525 6.01 -1 5 C-0.67 3.35 -0.34 1.7 0 0 Z " fill="#E6E6E6" transform="translate(293,439)"/>
<path d="M0 0 C0.33 0.66 0.66 1.32 1 2 C3.025 2.652 3.025 2.652 5 3 C0.879 4.998 -2.452 5.178 -7 5 C-7 4.67 -7 4.34 -7 4 C-5.02 4 -3.04 4 -1 4 C-0.67 2.68 -0.34 1.36 0 0 Z " fill="#D3D3D3" transform="translate(657,141)"/>
<path d="M0 0 C1.65 1.32 3.3 2.64 5 4 C4.01 4.66 3.02 5.32 2 6 C0.68 4.35 -0.64 2.7 -2 1 C-1.34 0.67 -0.68 0.34 0 0 Z " fill="#191919" transform="translate(635,801)"/>
<path d="M0 0 C1.562 1.812 1.562 1.812 3 4 C2.67 4.99 2.34 5.98 2 7 C1.34 7 0.68 7 0 7 C-0.33 7.66 -0.66 8.32 -1 9 C-0.67 6.03 -0.34 3.06 0 0 Z " fill="#C7C7C7" transform="translate(484,670)"/>
<path d="M0 0 C0.66 0 1.32 0 2 0 C2 0.66 2 1.32 2 2 C2.99 2.33 3.98 2.66 5 3 C5.33 3.99 5.66 4.98 6 6 C4.68 6 3.36 6 2 6 C1.34 4.02 0.68 2.04 0 0 Z " fill="#151515" transform="translate(453,627)"/>
<path d="M0 0 C0.33 0.66 0.66 1.32 1 2 C2.32 1.67 3.64 1.34 5 1 C5 1.66 5 2.32 5 3 C5.66 3 6.32 3 7 3 C7 3.66 7 4.32 7 5 C4.03 4.505 4.03 4.505 1 4 C0.67 2.68 0.34 1.36 0 0 Z " fill="#B3B3B3" transform="translate(360,569)"/>
<path d="M0 0 C0 1.32 0 2.64 0 4 C-0.99 4 -1.98 4 -3 4 C-3 3.34 -3 2.68 -3 2 C-4.32 1.67 -5.64 1.34 -7 1 C-4.537 -0.231 -2.72 -0.072 0 0 Z " fill="#B7B7B7" transform="translate(605,554)"/>
<path d="M0 0 C1.32 0 2.64 0 4 0 C4 0.66 4 1.32 4 2 C4.99 2.33 5.98 2.66 7 3 C5.02 3.99 5.02 3.99 3 5 C1.5 3.625 1.5 3.625 0 2 C0 1.34 0 0.68 0 0 Z " fill="#0E0E0E" transform="translate(303,447)"/>
<path d="M0 0 C0.99 0.99 1.98 1.98 3 3 C2.67 3.99 2.34 4.98 2 6 C-0.062 6.688 -0.062 6.688 -2 7 C-1.34 4.69 -0.68 2.38 0 0 Z " fill="#161616" transform="translate(346,434)"/>
<path d="M0 0 C1.938 0.375 1.938 0.375 4 1 C4.33 1.66 4.66 2.32 5 3 C4.34 3 3.68 3 3 3 C2.67 3.99 2.34 4.98 2 6 C1.01 4.68 0.02 3.36 -1 2 C-0.67 1.34 -0.34 0.68 0 0 Z " fill="#1A1A1A" transform="translate(548,386)"/>
<path d="M0 0 C0.33 0.66 0.66 1.32 1 2 C3.017 3.134 3.017 3.134 5 4 C4.67 4.66 4.34 5.32 4 6 C0.839 4.63 0.007 4.011 -2 1 C-1.34 0.67 -0.68 0.34 0 0 Z " fill="#F1F1F1" transform="translate(559,370)"/>
<path d="M0 0 C0.66 0.66 1.32 1.32 2 2 C0.523 6.677 0.523 6.677 -2.125 8.312 C-3.053 8.653 -3.053 8.653 -4 9 C-2.941 5.597 -1.991 2.986 0 0 Z " fill="#272727" transform="translate(314,320)"/>
<path d="M0 0 C0.66 0 1.32 0 2 0 C2.33 1.32 2.66 2.64 3 4 C1.02 4.99 1.02 4.99 -1 6 C-1.33 5.34 -1.66 4.68 -2 4 C-1.062 1.875 -1.062 1.875 0 0 Z " fill="#E9E9E9" transform="translate(601,170)"/>
<path d="M0 0 C1.65 0 3.3 0 5 0 C5.66 1.32 6.32 2.64 7 4 C4 4 4 4 1.812 2 C1.214 1.34 0.616 0.68 0 0 Z " fill="#E9E9E9" transform="translate(493,812)"/>
<path d="M0 0 C5.75 1.75 5.75 1.75 8 4 C7.01 4.495 7.01 4.495 6 5 C3.969 4.066 1.965 3.068 0 2 C0 1.34 0 0.68 0 0 Z " fill="#111111" transform="translate(599,538)"/>
<path d="M0 0 C0.33 0.66 0.66 1.32 1 2 C0 5 0 5 -2.062 6.188 C-2.702 6.456 -3.341 6.724 -4 7 C-3.688 4.625 -3.688 4.625 -3 2 C-2.01 1.34 -1.02 0.68 0 0 Z " fill="#D9D9D9" transform="translate(520,398)"/>
<path d="M0 0 C0 3 0 3 0 3 Z M-2 3 C-1.34 3.66 -0.68 4.32 0 5 C-1.32 6.32 -2.64 7.64 -4 9 C-4.66 8.67 -5.32 8.34 -6 8 C-4.68 6.35 -3.36 4.7 -2 3 Z " fill="#1C1C1C" transform="translate(332,293)"/>
</svg>
